<svg xmlns="http://www.w3.org/2000/svg" width="20.999" height="21" viewBox="0 0 20.999 21"><defs><style>.a{fill:#e1631b;}</style></defs><path class="a" d="M11.219,1.75h-.963a2.411,2.411,0,0,0-4.637,0H4.656A.661.661,0,0,0,4,2.406V3.719A1.539,1.539,0,0,0,5.531,5.25h4.813a1.539,1.539,0,0,0,1.531-1.531V2.406A.661.661,0,0,0,11.219,1.75Z" transform="translate(-0.5)"/><path class="a" d="M12.469,3H12.25V4.094A2.4,2.4,0,0,1,9.844,6.5H5.031A2.4,2.4,0,0,1,2.625,4.094V3H2.406A2.4,2.4,0,0,0,0,5.406V16.344A2.4,2.4,0,0,0,2.406,18.75H8.864l.193-1.076a2.437,2.437,0,0,1,.665-1.286l.7-.7H3.281a.656.656,0,0,1,0-1.312h8.313a.3.3,0,0,1,.123.017h.009l3.15-3.15V5.406A2.4,2.4,0,0,0,12.469,3Zm-.875,9.844H3.281a.656.656,0,0,1,0-1.312h8.313a.656.656,0,0,1,0,1.313Zm0-2.844H3.281a.656.656,0,0,1,0-1.312h8.313a.656.656,0,0,1,0,1.313Z" transform="translate(0 -0.375)"/><path class="a" d="M12.433,22.459a.656.656,0,0,1-.646-.771l.464-2.629a.659.659,0,0,1,.182-.35l6.5-6.5a1.335,1.335,0,0,1,2.011-.155l1.082,1.082a1.532,1.532,0,0,1,0,2.166l-6.5,6.5a.647.647,0,0,1-.35.182l-2.629.464a.625.625,0,0,1-.114.01Zm2.629-1.12h.009Z" transform="translate(-1.472 -1.459)"/></svg>