<svg xmlns="http://www.w3.org/2000/svg" width="16" height="18.286" viewBox="0 0 16 18.286"><defs><style>.a{fill:#f27016;}</style></defs><path class="a" d="M11.407,11.449,8,14.856,4.593,11.449A4.789,4.789,0,0,0,0,16.228v.343a1.715,1.715,0,0,0,1.714,1.714H14.286A1.715,1.715,0,0,0,16,16.571v-.343A4.789,4.789,0,0,0,11.407,11.449ZM.486,2.849.714,2.9V4.988A.825.825,0,0,0,.682,6.417L.125,8.642c-.061.246.075.5.271.5H1.889c.2,0,.332-.254.271-.5L1.6,6.417a.825.825,0,0,0-.032-1.429V3.11l2.357.568a4.563,4.563,0,1,0,8.643,2.036,4.49,4.49,0,0,0-.5-2.036l3.439-.829a.568.568,0,0,0,0-1.125L8.711.081a3.068,3.068,0,0,0-1.418,0L.486,1.721a.571.571,0,0,0,0,1.129Z" transform="translate(0 0.002)"/></svg>