<svg xmlns="http://www.w3.org/2000/svg" xmlns:xlink="http://www.w3.org/1999/xlink" width="342.097" height="219.235" viewBox="0 0 342.097 219.235"><defs><style>.a{fill:#ffb17b;}.b{fill:#ffefc2;}.c{fill:#152b39;}.d{fill:#141835;}.e{fill:#b24c12;}.f{fill:#fff;}.g{fill:url(#a);}.h{fill:#f27016;}.i{fill:#f5ce62;}.j{fill:#e1631b;}.k{fill:#b0470b;}</style><linearGradient id="a" x1="0.5" x2="0.5" y2="1" gradientUnits="objectBoundingBox"><stop offset="0.082" stop-color="#f6a025"/><stop offset="0.161" stop-color="#f3851c"/><stop offset="0.232" stop-color="#f27517"/><stop offset="0.287" stop-color="#f27016"/><stop offset="0.321" stop-color="#ef6d17"/><stop offset="0.497" stop-color="#e4651a"/><stop offset="0.701" stop-color="#e1631c"/><stop offset="0.848" stop-color="#e86819"/><stop offset="0.967" stop-color="#f27016"/></linearGradient></defs><g transform="translate(-148.343 -43.95)"><g transform="translate(148.343 43.95)"><g transform="translate(155.043)"><g transform="translate(0 18.456)"><path class="a" d="M2354.321,455.866l-55.752-10.076a1.669,1.669,0,0,1-.586-3.06l23.277-14.511a1.669,1.669,0,0,1,2.1.274l5.971,6.363,7.821-3.871a1.669,1.669,0,0,1,2.063.478l16.725,21.741a1.669,1.669,0,0,1-1.62,2.661Zm-50.9-12.592,47.233,8.536-13.25-17.224-7.7,3.812a1.67,1.67,0,0,1-1.958-.354l-5.882-6.268Z" transform="translate(-2297.196 -427.966)"/></g><g transform="translate(0 0)"><path class="a" d="M2298.569,294.57a1.669,1.669,0,0,1-1.346-1.94l5.958-32.967a1.67,1.67,0,0,1,2.86-.846l17.318,18.456a1.669,1.669,0,0,1-.334,2.559l-23.276,14.511A1.67,1.67,0,0,1,2298.569,294.57Zm7.308-31.048-4.7,26,18.355-11.443Z" transform="translate(-2297.197 -258.291)"/></g><g transform="translate(39.027 10.076)"><path class="a" d="M2674.093,387.2a1.669,1.669,0,0,1-1.026-.625l-16.725-21.741a1.67,1.67,0,0,1,.583-2.514l22.683-11.227a1.669,1.669,0,0,1,2.384,1.793l-5.958,32.967a1.669,1.669,0,0,1-1.94,1.346Zm-13.865-22.789,13.188,17.143,4.7-26Z" transform="translate(-2655.995 -350.925)"/></g><g transform="translate(5.958)"><path class="a" d="M2377.483,287.326a1.668,1.668,0,0,1-.92-.5L2352.425,261.1a1.669,1.669,0,0,1,1.514-2.785l55.752,10.076a1.669,1.669,0,0,1,.444,3.139l-31.614,15.647A1.669,1.669,0,0,1,2377.483,287.326ZM2358.316,262.5l19.833,21.135,25.977-12.856Z" transform="translate(-2351.973 -258.291)"/></g></g><g transform="translate(262.213 114.613)"><g transform="translate(0 25.487)"><path class="a" d="M3344.207,1586.474l-60.558-26.11a1.943,1.943,0,0,1,.141-3.624L3314,1546.419a1.943,1.943,0,0,1,2.309.864l5.094,8.788,9.887-2.328a1.944,1.944,0,0,1,2.214,1.086l13.236,29.055a1.943,1.943,0,0,1-2.538,2.59Zm-54.393-27.684,51.305,22.121-10.486-23.019-9.738,2.293a1.943,1.943,0,0,1-2.127-.917l-5.018-8.655Z" transform="translate(-3282.474 -1546.314)"/></g><g transform="translate(0)"><path class="a" d="M3283.649,1351.531a1.943,1.943,0,0,1-1.015-2.554l15.439-35.809a1.943,1.943,0,0,1,3.466-.205l14.775,25.488a1.944,1.944,0,0,1-1.053,2.814l-30.214,10.322A1.944,1.944,0,0,1,3283.649,1351.531Zm16.465-33.278-12.175,28.238,23.825-8.139Z" transform="translate(-3282.475 -1311.994)"/></g><g transform="translate(47.322 26.11)"><path class="a" d="M3731.946,1591.577a1.943,1.943,0,0,1-1-.979l-13.236-29.056a1.943,1.943,0,0,1,1.323-2.7l28.676-6.754a1.943,1.943,0,0,1,2.23,2.661l-15.439,35.81a1.943,1.943,0,0,1-2.553,1.015Zm-9.718-29.491L3732.666,1585l12.175-28.238Z" transform="translate(-3717.535 -1552.039)"/></g><g transform="translate(15.439 0)"><path class="a" d="M3446.185,1351.245a1.941,1.941,0,0,1-.912-.81l-20.592-35.523a1.943,1.943,0,0,1,2.451-2.759l60.558,26.11a1.943,1.943,0,0,1-.324,3.676l-39.966,9.413A1.942,1.942,0,0,1,3446.185,1351.245Zm-15.192-33.195,16.92,29.188,32.839-7.734Z" transform="translate(-3424.419 -1311.994)"/></g></g><g transform="translate(0 80.789)"><g transform="translate(16.093 26.394)"><path class="a" d="M1085.033,1258.082l-62.475,27.214a2.008,2.008,0,0,1-2.632-2.667l13.565-30.075a2.008,2.008,0,0,1,2.283-1.131l10.226,2.368,5.23-9.1a2.008,2.008,0,0,1,2.383-.9l31.261,10.549a2.008,2.008,0,0,1,.16,3.744Zm-59.306,21.453,52.93-23.056-24.766-8.357-5.151,8.963a2.009,2.009,0,0,1-2.194.956l-10.072-2.332Z" transform="translate(-1019.747 -1243.684)"/></g><g transform="translate(0 27.214)"><path class="a" d="M890.7,1292.019a2.008,2.008,0,0,1-2.643-1.039l-16.092-36.943a2.008,2.008,0,0,1,2.294-2.758l29.657,6.868a2.008,2.008,0,0,1,1.377,2.782L891.731,1291A2.008,2.008,0,0,1,890.7,1292.019Zm-13.459-35.927,12.69,29.131,10.7-23.716Z" transform="translate(-871.8 -1251.227)"/></g><g transform="translate(47.307)"><path class="a" d="M1340.794,1041.822a2.009,2.009,0,0,1-1.444.062l-31.261-10.549a2.008,2.008,0,0,1-1.1-2.9l15.168-26.394a2.008,2.008,0,0,1,3.582.2l16.093,36.943a2.008,2.008,0,0,1-1.039,2.643Zm-29.1-13.51,24.651,8.318-12.69-29.131Z" transform="translate(-1306.723 -1001.03)"/></g><g transform="translate(0 0)"><path class="a" d="M915.944,1041.665a2.007,2.007,0,0,1-1.255.115l-41.335-9.572a2.008,2.008,0,0,1-.349-3.8l62.475-27.214a2.008,2.008,0,0,1,2.543,2.842l-21.141,36.786A2.005,2.005,0,0,1,915.944,1041.665Zm-35.764-12,33.964,7.865,17.371-30.226Z" transform="translate(-871.799 -1001.03)"/></g></g><g transform="translate(50.367 16.405)"><path class="b" d="M1590.44,517.982q-.157.9-.338,1.8a84.815,84.815,0,0,1-5.013,15.952q-.42,1-.857,1.973a100.95,100.95,0,0,1-6.813,12.7q-.674,1.064-1.375,2.111a116.281,116.281,0,0,1-41.245,37.155l-.147.079q-1.8.976-3.63,1.891-.734.368-1.475.726-4.917,2.379-10.022,4.314a137.666,137.666,0,0,1-15.961,4.948q-1.28.315-2.569.607-2.753.624-5.543,1.144-4.969.932-10.033,1.535a166.087,166.087,0,0,1-55.244-2.783q-.63-.14-1.259-.284a145.634,145.634,0,0,1-48.13-20.306q-.814-.542-1.619-1.1-1.981-1.369-3.881-2.817l-.043-.033q-.794-.606-1.573-1.226-3.2-2.546-6.155-5.316-1.172-1.1-2.3-2.23a101.279,101.279,0,0,1-13.24-16.308,103.263,103.263,0,0,1-5.656-9.8q-1.255-2.474-2.375-5.01a107.481,107.481,0,0,1-.93-84.346c7.933-19.111,23.513-43.744,46.776-44.238,24.959-.53,41.626,22.4,60.135,35.535a124.647,124.647,0,0,0,59.759,22.362c23.283,2.423,54.375-4.889,72.228,14.642a35.632,35.632,0,0,1,8.853,18.567A53.006,53.006,0,0,1,1590.44,517.982Z" transform="translate(-1334.849 -409.11)"/></g><g transform="translate(66.445 97.217)"><g transform="translate(129.578 0.09)"><g transform="translate(24.038 57.209)"><path class="c" d="M2894.944,1702.378c.771,12.551,11.207,16.9,21.428,10.535,12.424-7.74,13.015-25.177,24.271-34.072C2926.967,1686.3,2898.413,1682.131,2894.944,1702.378Z" transform="translate(-2894.944 -1678.842)"/></g><g transform="translate(25.074 62.227)"><path class="d" d="M2905.067,1749.013c3.631,6.8,14.313.889,17.886-2.6,5.743-5.606,7.75-13.843,9.27-21.436-7.013,1.279-13.765,2.063-19.027,7.018C2909.9,1735.1,2902.3,1743.827,2905.067,1749.013Z" transform="translate(-2904.471 -1724.977)"/></g><g transform="translate(0.005)"><path class="c" d="M2674.028,1232.613c.713,14.077,19.018,14.306,28.706,10.427,13.1-5.247,15.123-16.819,20.553-28.358,2.348-4.99,5.311-9.61,10.448-12.1,5.373-2.607,12.905-1.421,16.929-6.586,3.425-4.4,1.588-10.331,2.047-15.367.708-7.772,4.242-11.745,9.186-17.175,11.556-12.693-5.143-13.064-13.774-5.792-3.426,2.886-5.775,6.563-9.6,9.028-5.545,3.57-12.73,4.7-18.825,7.1-13.219,5.225-25.961,12.1-33.579,24.5C2680.624,1207.232,2673.476,1221.782,2674.028,1232.613Z" transform="translate(-2673.998 -1152.889)"/></g><g transform="translate(0 5.312)"><path class="d" d="M2673.988,1276.135c.772,15.252,18.516,10.747,28.451,9.677-1.657-.2-5.39.2-6.585-.777-2.5-2.05-2.339-11.2-2.317-14.308a48.842,48.842,0,0,1,10.794-30.458c11.98-15.267,32.785-22.516,43.168-38.548-7.955,7.6-13.583,10.443-23.918,14.125-10.1,3.6-21.032,8.337-29.083,15.6C2684.177,1240.762,2673.255,1261.739,2673.988,1276.135Z" transform="translate(-2673.953 -1201.723)"/></g></g><g transform="translate(22.106 57.209)"><path class="c" d="M1731.6,1701.556c-.77,12.552-11.207,16.9-21.428,10.536-12.424-7.74-13.015-25.177-24.271-34.072C1699.577,1685.477,1728.131,1681.309,1731.6,1701.556Z" transform="translate(-1685.901 -1678.02)"/></g><g transform="translate(39.018 62.227)"><path class="d" d="M1868.531,1748.191c-3.631,6.8-14.312.889-17.886-2.6-5.743-5.606-7.75-13.843-9.27-21.436,7.013,1.279,13.764,2.062,19.027,7.018C1863.7,1734.277,1871.3,1743,1868.531,1748.191Z" transform="translate(-1841.375 -1724.155)"/></g><path class="c" d="M1574.472,1231.79c-.713,14.077-19.018,14.306-28.706,10.427-13.105-5.247-15.123-16.819-20.553-28.358-2.348-4.99-5.31-9.61-10.448-12.1-5.373-2.607-12.905-1.421-16.929-6.586-3.425-4.4-1.588-10.331-2.047-15.367-.708-7.772-4.242-11.745-9.186-17.175-11.557-12.693,5.143-13.064,13.774-5.792,3.426,2.887,5.775,6.563,9.6,9.028,5.545,3.57,12.73,4.7,18.825,7.1,13.22,5.225,25.961,12.1,33.58,24.5C1567.875,1206.409,1575.023,1220.959,1574.472,1231.79Z" transform="translate(-1482.664 -1152.066)"/><g transform="translate(18.297 5.312)"><path class="d" d="M1724.391,1275.313c-.772,15.252-18.516,10.747-28.451,9.677,1.656-.2,5.389.205,6.585-.777,2.5-2.05,2.339-11.2,2.317-14.308a48.84,48.84,0,0,0-10.794-30.457c-11.98-15.267-32.785-22.516-43.168-38.548,7.955,7.6,13.583,10.443,23.918,14.125,10.1,3.6,21.032,8.337,29.083,15.6C1714.2,1239.939,1725.124,1260.916,1724.391,1275.313Z" transform="translate(-1650.88 -1200.9)"/></g></g><g transform="translate(44.506 28.021)"><path class="a" d="M1407.006,707.115c-4.61,0-9.209-.187-13.769-.565q-.655-.055-1.309-.113a158.279,158.279,0,0,1-26.561-4.685,138.974,138.974,0,0,1-24.839-9.205c-.539-.262-1.124-.552-1.787-.886-1.476-.748-2.93-1.528-4.323-2.319h0l-.047-.027c-.595-.338-1.188-.683-1.764-1.025-2.379-1.414-4.724-2.94-6.97-4.537-.893-.633-1.783-1.287-2.643-1.942a103.8,103.8,0,0,1-15.664-14.694,106.023,106.023,0,0,1-7.081-9.144c-1.068-1.546-2.11-3.143-3.1-4.747a108.931,108.931,0,0,1-13.646-33.927,109.615,109.615,0,0,1,1.071-51.352c2.287-8.665,6.549-21.237,13.865-31.92,7.752-11.32,17.13-17.921,27.876-19.617,18.613-2.939,34.253,7.406,49.378,17.41a190.476,190.476,0,0,0,16.433,10.112,124.358,124.358,0,0,0,30.278,11.125,127.892,127.892,0,0,0,32.133,3.006,185.4,185.4,0,0,0,19.825-2.139c9.58-1.368,19.487-2.783,28.936-2.268,10.806.588,19.434,3.688,26.379,9.477a37.162,37.162,0,0,1,11.755,17.923,54.651,54.651,0,0,1,2.152,18.208h0c-.023.623-.055,1.255-.095,1.877a86.705,86.705,0,0,1-2.882,16.891c-.2.722-.4,1.435-.6,2.118a102.851,102.851,0,0,1-5.151,13.806c-.364.8-.735,1.579-1.1,2.329a118.787,118.787,0,0,1-36.609,43.28l-.141.1c-1.121.822-2.269,1.633-3.407,2.409-.44.3-.9.608-1.39.936-3.082,2.046-6.291,3.978-9.54,5.743a140.848,140.848,0,0,1-15.445,7.2c-.842.333-1.687.658-2.511.967-1.783.668-3.613,1.313-5.439,1.918-3.23,1.073-6.567,2.058-9.917,2.929A169.327,169.327,0,0,1,1407.006,707.115ZM1335.453,687.4l.039.022.014.008c1.363.774,2.786,1.537,4.229,2.269.651.328,1.225.614,1.755.871a136.79,136.79,0,0,0,24.446,9.059,156.083,156.083,0,0,0,26.191,4.619q.646.059,1.292.112a167.642,167.642,0,0,0,55.388-4.722c3.3-.858,6.593-1.83,9.778-2.888,1.8-.6,3.6-1.232,5.361-1.89.812-.3,1.644-.624,2.473-.952a138.589,138.589,0,0,0,15.2-7.083c3.192-1.735,6.346-3.633,9.374-5.643.486-.323.933-.624,1.366-.92,1.119-.763,2.246-1.56,3.351-2.37l.14-.1a116.575,116.575,0,0,0,35.93-42.468c.359-.734.721-1.5,1.078-2.28a100.64,100.64,0,0,0,5.04-13.509c.2-.669.392-1.366.583-2.072A84.479,84.479,0,0,0,1541.3,601c.038-.6.069-1.213.092-1.817h0a52.468,52.468,0,0,0-2.055-17.475,35,35,0,0,0-11.062-16.883,36.188,36.188,0,0,0-11.842-6.583,49.5,49.5,0,0,0-13.248-2.387c-9.233-.5-19.031.9-28.505,2.25a186.92,186.92,0,0,1-20.066,2.16,130.09,130.09,0,0,1-32.686-3.059,126.556,126.556,0,0,1-30.814-11.322,195.061,195.061,0,0,1-16.628-10.227c-14.775-9.772-30.053-19.877-47.821-17.071-10.124,1.6-19.007,7.886-26.4,18.687-7.137,10.423-11.309,22.74-13.552,31.238a107.632,107.632,0,0,0,12.322,83.565c.966,1.57,1.986,3.135,3.032,4.649a103.8,103.8,0,0,0,6.934,8.953,101.6,101.6,0,0,0,15.332,14.383c.842.64,1.711,1.279,2.586,1.9,2.2,1.563,4.493,3.056,6.821,4.44C1334.3,686.732,1334.873,687.068,1335.453,687.4Z" transform="translate(-1280.969 -515.901)"/></g></g><g transform="translate(245.865 70.165)"><g transform="translate(20.437 36.237)"><path class="e" d="M2074.169,881.554l-2.9,17.986-.556,3.452c0,2.673-5.71,37.883-8.668,37.883l-46.77-32.317-51.907,36.014c-2.957,0-6.066-37.889-6.066-40.562l-.206-4.47-.829-17.933,8.345-7.211,47.326-40.9a5.807,5.807,0,0,1,6.673,0l47.281,40.9Z" transform="translate(-1956.268 -832.445)"/><g transform="translate(13.32 21.677)"><rect class="f" width="91.753" height="86.497"/></g><g transform="translate(0 49.162)"><path class="g" d="M2015.282,1331.43l-59.014-47.011v79.92h117.9v-79.92Z" transform="translate(-1956.268 -1284.419)"/></g><g transform="translate(0 49.162)"><path class="h" d="M1956.268,1284.419v79.92l50.163-39.96Z" transform="translate(-1956.268 -1284.419)"/></g><g transform="translate(67.738 49.162)"><path class="h" d="M2629.188,1284.419v79.92l-50.163-39.96Z" transform="translate(-2579.026 -1284.419)"/></g><g transform="translate(101.305 113.365)"><path class="f" d="M2899.119,1885.541a.814.814,0,0,1,.814-.814V1884a.814.814,0,1,1,0-1.628v-.728a.814.814,0,1,1,0-1.628v-.728a.814.814,0,1,1,0-1.628v-.728a.814.814,0,1,1,0-1.627v-.631h-.631s0,.008,0,.012a.814.814,0,1,1-1.627,0s0-.008,0-.012h-.729s0,.008,0,.012a.814.814,0,1,1-1.627,0s0-.008,0-.012h-.729s0,.008,0,.012a.814.814,0,1,1-1.628,0,.094.094,0,0,1,0-.012h-.729s0,.008,0,.012a.814.814,0,1,1-1.627,0s0-.008,0-.012h-.729s0,.008,0,.012a.814.814,0,0,1-1.628,0s0-.008,0-.012h-.631v.631a.814.814,0,0,1,0,1.627v.728a.814.814,0,0,1,0,1.628v.728a.814.814,0,0,1,0,1.628v.728a.814.814,0,0,1,0,1.628v.728a.814.814,0,0,1,0,1.628v.631h.63a.814.814,0,0,1,1.628,0h.728a.814.814,0,0,1,1.627,0h.728a.814.814,0,0,1,1.628,0h.728a.814.814,0,1,1,1.627,0h.728a.814.814,0,0,1,1.627,0h.631v-.631A.814.814,0,0,1,2899.119,1885.541Z" transform="translate(-2887.621 -1874.674)"/></g><g transform="translate(82.825 113.365)"><path class="f" d="M2729.222,1885.541a.814.814,0,0,1,.814-.814V1884a.814.814,0,1,1,0-1.628v-.728a.814.814,0,1,1,0-1.628v-.728a.814.814,0,1,1,0-1.628v-.728a.814.814,0,1,1,0-1.627v-.631h-.631s0,.008,0,.012a.814.814,0,1,1-1.628,0s0-.008,0-.012h-.729s0,.008,0,.012a.814.814,0,1,1-1.628,0s0-.008,0-.012h-.729s0,.008,0,.012a.814.814,0,1,1-1.628,0s0-.008,0-.012h-.729s0,.008,0,.012a.814.814,0,1,1-1.628,0s0-.008,0-.012h-.729s0,.008,0,.012a.814.814,0,1,1-1.628,0s0-.008,0-.012h-.631v.631a.814.814,0,1,1,0,1.627v.728a.814.814,0,1,1,0,1.628v.728a.814.814,0,1,1,0,1.628v.728a.814.814,0,1,1,0,1.628v.728a.814.814,0,1,1,0,1.628v.631h.631a.814.814,0,0,1,1.628,0h.728a.814.814,0,0,1,1.628,0h.728a.814.814,0,0,1,1.628,0h.728a.814.814,0,0,1,1.628,0h.728a.814.814,0,0,1,1.628,0h.631v-.631A.814.814,0,0,1,2729.222,1885.541Z" transform="translate(-2717.724 -1874.674)"/></g><g transform="translate(37.181 35.055)"><g transform="translate(5.15 5.151)"><circle class="i" cx="16.619" cy="16.619" r="16.619"/></g><path class="h" d="M2319.863,1198.269a21.77,21.77,0,1,1,21.77-21.77A21.794,21.794,0,0,1,2319.863,1198.269Zm0-41.084a19.314,19.314,0,1,0,19.314,19.314A19.336,19.336,0,0,0,2319.863,1157.185Z" transform="translate(-2298.093 -1154.73)"/><g transform="translate(20.087 13.335)"><path class="f" d="M2483.223,1286.865l-.357-5.337q-.1-1.56-.1-2.24a2.031,2.031,0,0,1,.485-1.443,1.664,1.664,0,0,1,1.276-.518,1.283,1.283,0,0,1,1.281.663,4.478,4.478,0,0,1,.323,1.911,14.644,14.644,0,0,1-.078,1.493l-.479,5.493a4.306,4.306,0,0,1-.334,1.5.876.876,0,0,1-.847.524.843.843,0,0,1-.836-.507A5.039,5.039,0,0,1,2483.223,1286.865Zm1.237,7.332a1.753,1.753,0,0,1-1.187-.44,1.543,1.543,0,0,1-.507-1.231,1.655,1.655,0,0,1,1.671-1.66,1.651,1.651,0,0,1,1.2.485,1.583,1.583,0,0,1,.5,1.175,1.555,1.555,0,0,1-.5,1.226A1.706,1.706,0,0,1,2484.46,1294.2Z" transform="translate(-2482.766 -1277.327)"/></g></g></g><g transform="translate(141.118)"><g transform="translate(17.239)"><path class="j" d="M3245.847,499.3l-7.684,24.955-1.231,4-3.51-2.962-9.175-7.74Z" transform="translate(-3224.247 -499.299)"/></g><g transform="translate(0 0)"><path class="j" d="M3104.595,499.3l-26.7,15.418-12.143-4.024Z" transform="translate(-3065.755 -499.299)"/></g><g transform="translate(12.143 0)"><path class="k" d="M3204.091,499.3l-21.6,18.252-4.151,8.3-.945-11.134Z" transform="translate(-3177.395 -499.299)"/></g></g><g transform="translate(0 5.811)"><path class="a" d="M1875.617,1047.594c-.274,0-.55-.007-.819-.02a.87.87,0,1,1,.085-1.738c.242.012.489.018.735.018a16.369,16.369,0,0,0,4.612-.673.87.87,0,0,1,.49,1.67A18.106,18.106,0,0,1,1875.617,1047.594Z" transform="translate(-1862.484 -991.584)"/><path class="a" d="M1781.66,994.388a.866.866,0,0,1-.525-.176,11.187,11.187,0,0,1-1.981-1.927,12,12,0,0,1-1.713-2.915.87.87,0,0,1,1.608-.665,10.256,10.256,0,0,0,1.464,2.492,9.451,9.451,0,0,0,1.673,1.627.87.87,0,0,1-.526,1.564Z" transform="translate(-1776.397 -940.804)"/><path class="a" d="M1987.722,981.348a.87.87,0,0,1-.544-1.55,30.66,30.66,0,0,0,3.969-3.862.87.87,0,0,1,1.313,1.143,32.343,32.343,0,0,1-4.195,4.078A.866.866,0,0,1,1987.722,981.348Z" transform="translate(-1963.088 -929.636)"/><path class="a" d="M2153.132,960.048a.868.868,0,0,1-.437-.118l-1.409-.82c-1.21-.7-2.387-1.388-3.521-2.052a.87.87,0,0,1,.88-1.5c1.132.663,2.307,1.346,3.515,2.049l1.41.82a.87.87,0,0,1-.438,1.622Z" transform="translate(-2106.115 -911.633)"/><path class="a" d="M2047.784,882.729a.87.87,0,0,1-.717-1.362l.241-.353c-.952-.653-1.766-1.251-2.46-1.806a.87.87,0,0,1,1.087-1.359c.659.527,1.435,1.1,2.347,1.722l.3-.442c.558-.833,1.1-1.651,1.621-2.482a.87.87,0,1,1,1.477.922c-.533.853-1.085,1.683-1.652,2.529l-.295.44q.389.253.805.518a.87.87,0,0,1-.934,1.468q-.437-.278-.844-.543l-.254.371A.869.869,0,0,1,2047.784,882.729Z" transform="translate(-2014.485 -841.048)"/><path class="a" d="M1769.251,875.379l-.069,0a.87.87,0,0,1-.8-.935,29.735,29.735,0,0,1,1.026-5.61l.044-.156a.87.87,0,1,1,1.675.473l-.042.149a27.98,27.98,0,0,0-.967,5.279A.87.87,0,0,1,1769.251,875.379Z" transform="translate(-1768.379 -833.743)"/><path class="a" d="M2852.927,838.476c-.431,0-.869-.006-1.3-.017a.87.87,0,0,1,.045-1.74,49.019,49.019,0,0,0,5.6-.177.87.87,0,1,1,.154,1.733C2855.931,838.408,2854.418,838.476,2852.927,838.476Z" transform="translate(-2733.045 -805.667)"/><path class="a" d="M1993.2,791.5a.87.87,0,0,1-.793-.512,12.645,12.645,0,0,1-1.186-5.216c0-.247.009-.5.026-.741a.87.87,0,1,1,1.736.12c-.014.2-.021.414-.021.621a10.923,10.923,0,0,0,1.031,4.5.871.871,0,0,1-.792,1.229Z" transform="translate(-1966.985 -759.036)"/><path class="a" d="M2736.918,821.307a.875.875,0,0,1-.16-.015,46.9,46.9,0,0,1-5.632-1.412.87.87,0,1,1,.528-1.658,45.147,45.147,0,0,0,5.422,1.36.87.87,0,0,1-.158,1.726Z" transform="translate(-2625.866 -789.305)"/><path class="a" d="M2972.9,813.123a.87.87,0,0,1-.206-1.715,48.76,48.76,0,0,0,5.352-1.644.87.87,0,1,1,.606,1.631,50.461,50.461,0,0,1-5.544,1.7A.866.866,0,0,1,2972.9,813.123Z" transform="translate(-2841.108 -781.756)"/><path class="a" d="M2122.52,768.334a.871.871,0,0,1-.852-1.052c.076-.354.136-.71.179-1.059a9.057,9.057,0,0,0,.068-1.116,9.661,9.661,0,0,0-.481-3,.87.87,0,1,1,1.652-.547,11.423,11.423,0,0,1,.569,3.543,10.761,10.761,0,0,1-.082,1.331c-.05.4-.118.805-.2,1.208A.871.871,0,0,1,2122.52,768.334Z" transform="translate(-2082.993 -738.315)"/><path class="a" d="M1803.321,763.482a.871.871,0,0,1-.786-1.242,48.5,48.5,0,0,1,2.791-5.088.87.87,0,0,1,1.473.927,46.749,46.749,0,0,0-2.691,4.9A.87.87,0,0,1,1803.321,763.482Z" transform="translate(-1798.745 -734.554)"/><path class="a" d="M2626.9,769.07a.864.864,0,0,1-.4-.1l-.292-.155c-1.527-.817-3.057-1.739-4.676-2.819a.87.87,0,1,1,.966-1.448c1.571,1.048,3.053,1.942,4.53,2.732l.281.149a.87.87,0,0,1-.405,1.641Z" transform="translate(-2528.384 -741.377)"/><path class="a" d="M3086.312,756.537a.87.87,0,0,1-.43-1.627,44.621,44.621,0,0,0,4.681-3.052.87.87,0,0,1,1.041,1.395,46.351,46.351,0,0,1-4.865,3.172A.866.866,0,0,1,3086.312,756.537Z" transform="translate(-2942.182 -730.043)"/><path class="a" d="M2025.45,715.662a.87.87,0,0,1-.5-1.581,8.042,8.042,0,0,1,4.629-1.553h0a6.793,6.793,0,0,1,1.452.156.87.87,0,0,1-.372,1.7,5.05,5.05,0,0,0-1.08-.116,6.315,6.315,0,0,0-3.625,1.235A.866.866,0,0,1,2025.45,715.662Z" transform="translate(-1996.712 -695.146)"/><path class="a" d="M2529.177,695.625a.866.866,0,0,1-.537-.186c-1.213-.952-2.434-1.936-3.615-2.887l-.846-.682a.87.87,0,1,1,1.091-1.356l.847.682c1.176.948,2.393,1.928,3.6,2.873a.87.87,0,0,1-.538,1.555Z" transform="translate(-2441.68 -675.355)"/><path class="a" d="M1870.232,669.191a.87.87,0,0,1-.655-1.443,49.658,49.658,0,0,1,4.067-4.136.87.87,0,1,1,1.167,1.291,47.909,47.909,0,0,0-3.924,3.991A.868.868,0,0,1,1870.232,669.191Z" transform="translate(-1858.378 -651.35)"/><path class="a" d="M2430.915,622.923a.866.866,0,0,1-.514-.169c-1.658-1.216-3.182-2.251-4.658-3.163a.87.87,0,0,1,.914-1.481c1.516.936,3.077,2,4.773,3.24a.87.87,0,0,1-.515,1.572Z" transform="translate(-2353.872 -610.882)"/><path class="a" d="M1962.3,599.59a.87.87,0,0,1-.475-1.6,47.018,47.018,0,0,1,5.056-2.855.87.87,0,0,1,.76,1.566,45.236,45.236,0,0,0-4.868,2.749A.867.867,0,0,1,1962.3,599.59Z" transform="translate(-1940.43 -590.444)"/><path class="a" d="M2320.011,572.5a.87.87,0,0,1-.333-.067,45.9,45.9,0,0,0-5.286-1.823.87.87,0,1,1,.466-1.677,47.642,47.642,0,0,1,5.488,1.892.87.87,0,0,1-.334,1.674Z" transform="translate(-2254.432 -567.138)"/><path class="a" d="M2073.077,561.466a.87.87,0,0,1-.243-1.706,47.955,47.955,0,0,1,5.662-1.278.87.87,0,1,1,.28,1.718,46.219,46.219,0,0,0-5.456,1.231A.872.872,0,0,1,2073.077,561.466Z" transform="translate(-2039.159 -557.845)"/><g transform="translate(46.176)"><path class="a" d="M2199.461,554.774a.878.878,0,0,1-.1-.006,48.027,48.027,0,0,0-5.4-.306h-.189a.87.87,0,0,1,0-1.74h.193a49.774,49.774,0,0,1,5.6.317.87.87,0,0,1-.1,1.735Z" transform="translate(-2192.9 -552.722)"/></g></g></g></g></svg>