<svg xmlns="http://www.w3.org/2000/svg" width="442.747" height="290.036" viewBox="0 0 442.747 290.036"><defs><style>.a{fill:#ebebeb;}.b{fill:#dbdbdb;}.c{fill:#fff;}.d{fill:#c7c7c7;}.e,.k,.m,.r,.s{fill:none;}.e,.r,.s{stroke:#263238;}.e,.m{stroke-linecap:round;stroke-linejoin:round;}.f{fill:#f9b299;}.g{fill:#a6a6a6;}.h{fill:#263238;}.i{fill:#37474f;}.j{fill:#ff7d29;}.k{stroke:#fff;stroke-width:0.5px;}.k,.r,.s{stroke-miterlimit:10;}.l{fill:#e7a58e;}.m{stroke:#f5a79e;stroke-width:0;}.n{fill:#ff99ba;}.o{fill:#eb9481;}.p{fill:#e1631c;}.q{opacity:0.1;}.s{stroke-dasharray:4;}.t{fill:#455a64;}</style></defs><g transform="translate(-65.62 -55.734)"><g transform="translate(65.62 55.734)"><g transform="translate(336.807 32.477)"><path class="a" d="M633.824,136.54,626.9,170.061l-4.452-4.344-7.583,5.4-5.792-7.19-13,9.446-11.1-18.568L572.6,162.063l-4.91-6.773-15.726,8.861-4.732-10.128,11.023-53.389,59.1,12.2Z" transform="translate(-535.68 -100.634)"/><path class="b" d="M642.633,117.5l16.477,23.7-20.5-4.232Z" transform="translate(-560.965 -105.302)"/><path class="a" d="M621.012,199.746l-10.152,49.182-79.6-16.43,10.076-48.791,4.732,10.128,15.726-8.861,4.91,6.773,12.386-7.253,11.1,18.568,13-9.446,5.792,7.19,7.583-5.4Z" transform="translate(-531.262 -123.619)"/></g><g transform="translate(225.063)"><path class="a" d="M464.338,158.574l-81.12,5.02L376.774,59.461l60.232-3.727,22.117,18.549Z" transform="translate(-376.774 -55.734)"/><path class="b" d="M460.045,55.734l22.116,18.549-20.889,1.293Z" transform="translate(-399.814 -55.734)"/><g transform="translate(27.272 24.938)"><path class="b" d="M424.95,135.336l-.314-2.349c-.818-4.869.515-10.313,4.746-16.01,3.813-5.037,5.883-8.7,5.655-12.785-.259-4.628-3.334-7.549-9.056-7.32a16.15,16.15,0,0,0-9.005,3.326l-2.5-5.594c2.872-2.345,7.962-4.086,12.77-4.355,10.433-.584,15.511,5.593,15.9,12.487.345,6.17-2.853,10.808-6.918,16.223-3.727,4.941-4.955,9.014-4.424,13.626l.223,2.354Zm-1.285,12.813a5.372,5.372,0,0,1,5.123-6.02c3.175-.178,5.485,2.059,5.672,5.416a5.411,5.411,0,1,1-10.8.6Z" transform="translate(-414.478 -90.211)"/></g></g><g transform="translate(33.184 24.901)"><path class="a" d="M138.248,126.7l-8.163-3.7-1.132,2.5a2.131,2.131,0,0,1-1.86,1.24,12.377,12.377,0,0,0-1.335.131,2.129,2.129,0,0,1-2.061-.854l-1.6-2.23-7.289,5.222,1.6,2.23a2.13,2.13,0,0,1,.145,2.226,12.48,12.48,0,0,0-.553,1.221,2.129,2.129,0,0,1-1.771,1.363l-2.731.268.88,8.92,2.74-.273a2.134,2.134,0,0,1,2,1c.118.185.242.367.37.547s.261.355.4.526a2.126,2.126,0,0,1,.3,2.205l-1.14,2.518,8.163,3.7,1.137-2.5a2.13,2.13,0,0,1,1.863-1.238,12.66,12.66,0,0,0,1.329-.129,2.128,2.128,0,0,1,2.059.854l1.6,2.231,7.289-5.222-1.6-2.231a2.131,2.131,0,0,1-.146-2.224,12.376,12.376,0,0,0,.55-1.217,2.131,2.131,0,0,1,1.771-1.365l2.737-.271-.88-8.92-2.738.271a2.128,2.128,0,0,1-1.993-1q-.179-.278-.374-.55t-.4-.527a2.133,2.133,0,0,1-.3-2.216Zm-4.631,8.252a7.343,7.343,0,1,1-10.244-1.7A7.337,7.337,0,0,1,133.617,134.95Z" transform="translate(-111.497 -99.245)"/><path class="a" d="M655.229,291.713l-5.439,3.139.961,1.664a1.491,1.491,0,0,1-.053,1.565,8.637,8.637,0,0,0-.469.814,1.494,1.494,0,0,1-1.327.825H646.98V306H648.9a1.494,1.494,0,0,1,1.327.825,8.634,8.634,0,0,0,.469.814,1.491,1.491,0,0,1,.053,1.565l-.961,1.664,5.439,3.138.963-1.672a1.5,1.5,0,0,1,1.386-.731q.23.012.462.012c.154,0,.309,0,.461-.012a1.49,1.49,0,0,1,1.38.727l.969,1.677,5.439-3.138-.962-1.669a1.491,1.491,0,0,1,.055-1.565,8.806,8.806,0,0,0,.469-.809,1.492,1.492,0,0,1,1.327-.825H669.1V299.72h-1.923a1.493,1.493,0,0,1-1.327-.824,8.607,8.607,0,0,0-.469-.809,1.492,1.492,0,0,1-.055-1.566l.962-1.669-5.439-3.139-.964,1.67a1.491,1.491,0,0,1-1.381.728c-.153-.008-.309-.012-.465-.012s-.309,0-.462.012a1.5,1.5,0,0,1-1.387-.731Zm2.811,6a5.144,5.144,0,1,1-5.146,5.141A5.14,5.14,0,0,1,658.04,297.717Z" transform="translate(-259.656 -145.926)"/><path class="a" d="M168.569,90.885,163.581,94.7l1.168,1.527a1.493,1.493,0,0,1,.15,1.559,8.7,8.7,0,0,0-.362.867,1.491,1.491,0,0,1-1.209.99l-1.907.248.811,6.228,1.907-.248a1.492,1.492,0,0,1,1.422.647,8.7,8.7,0,0,0,.571.746,1.491,1.491,0,0,1,.255,1.545l-.739,1.775,5.8,2.41.739-1.783a1.5,1.5,0,0,1,1.28-.9q.229-.018.46-.048t.456-.071a1.489,1.489,0,0,1,1.462.543l1.177,1.538,4.989-3.814-1.17-1.531a1.493,1.493,0,0,1-.148-1.559,8.513,8.513,0,0,0,.36-.864,1.5,1.5,0,0,1,1.209-.989l1.907-.248-.811-6.228-1.907.248a1.494,1.494,0,0,1-1.422-.647,8.622,8.622,0,0,0-.569-.742,1.491,1.491,0,0,1-.256-1.545l.738-1.78-5.8-2.41-.74,1.78a1.493,1.493,0,0,1-1.276.9c-.153.012-.308.028-.463.048s-.306.043-.457.071a1.5,1.5,0,0,1-1.469-.546Zm3.562,5.591a5.144,5.144,0,1,1-4.44,5.763A5.14,5.14,0,0,1,172.131,96.477Z" transform="translate(-125.31 -90.16)"/></g><g transform="translate(0 101.41)"><g transform="translate(16.589)"><path class="a" d="M114.577,283.346a197.883,197.883,0,0,0-.288-21,267.454,267.454,0,0,0-6.579-42.786c-1.834-7.918-4.093-15.7-6.448-23.478-.071-.234-.446-.169-.38.077,7.279,27.41,13.252,55.7,12.84,84.191-.115,7.975-1.038,15.807-1.8,23.731-.02.212.328.3.377.079A119.067,119.067,0,0,0,114.577,283.346Z" transform="translate(-91.963 -195.935)"/><path class="a" d="M97.473,196.242s-11.028,27.991-8.559,34.569,7.559,7.983,7.559,7.983-6.747,9.633-2.032,18.668,15.191,8.608,15.887,18.852C110.328,276.315,110.912,233.48,97.473,196.242Z" transform="translate(-88.554 -196.02)"/><path class="c" d="M111.923,260.884a.216.216,0,0,0-.011-.147,256.37,256.37,0,0,0-10.7-56.309c-.017-.054-.106-.036-.09.02q3.277,12.282,5.79,24.7a12.178,12.178,0,0,0-5.264-2.935.03.03,0,0,0-.02.056,13.935,13.935,0,0,1,5.435,3.632q.484,2.433.937,4.87c-2.464-2.754-5.883-4.121-9.3-5.42a.04.04,0,0,0-.027.075c3.562,1.45,7.109,3.319,9.522,6.388q1.262,6.968,2.215,13.982a13.334,13.334,0,0,0-6.576-3.768c-.077-.019-.119.095-.041.117a13.892,13.892,0,0,1,6.669,4.272.182.182,0,0,0,.041.031q.331,2.467.624,4.94a16.982,16.982,0,0,0-4.609-2.78c-.045-.019-.069.051-.025.07a15.851,15.851,0,0,1,4.616,3.055c.019.018.039.016.059.023.184,1.568.367,3.136.525,4.707a22.406,22.406,0,0,0-9.353-6.678c-.072-.028-.109.082-.04.113a24.371,24.371,0,0,1,9.218,7.093.2.2,0,0,0,.232.073q.357,3.613.629,7.238c0,.033.057.036.055,0Q112.225,264.593,111.923,260.884Z" transform="translate(-91.347 -198.276)"/><path class="c" d="M102.2,229.918a13.789,13.789,0,0,0-6.626-2.065c-.055-.005-.059.076-.006.084a26.245,26.245,0,0,1,6.551,2.14C102.213,230.117,102.281,229.975,102.2,229.918Z" transform="translate(-90.484 -204.766)"/><path class="c" d="M104.68,271.028a13.95,13.95,0,0,0-4.974-1.7c-.061-.01-.066.083-.006.094a18.642,18.642,0,0,1,4.919,1.725C104.688,271.18,104.744,271.067,104.68,271.028Z" transform="translate(-91.626 -216.241)"/></g><g transform="translate(39.795 34.653)"><path class="a" d="M149.036,244.647A74.929,74.929,0,0,0,136.272,255.8a45.83,45.83,0,0,0-8.952,15.18,113.491,113.491,0,0,0-6.668,36.308,88.181,88.181,0,0,0,1.966,20.419.194.194,0,0,0,.381-.072,114.519,114.519,0,0,1,.2-35.692c1.9-11.579,4.87-24.177,12.231-33.587,4.008-5.125,9.005-9.156,13.945-13.322C149.635,244.819,149.3,244.459,149.036,244.647Z" transform="translate(-120.638 -244.051)"/><path class="a" d="M122.9,298.747a68.615,68.615,0,0,1,9.3-11.893c5.517-5.515,10.163-9.436,10.88-13.083s-5.526-6.334-5.526-6.334,7.635,1.371,9.724-1.833,3.1-21.761,3.1-21.761-13.889,9.916-20.36,23.816S122.9,298.747,122.9,298.747Z" transform="translate(-121.264 -243.843)"/><path class="c" d="M145.55,250.393c-5.844,5.74-11.725,11.856-15.167,19.4a74.439,74.439,0,0,0-3.068,8s0,.009,0,.012c-.177.549-.357,1.1-.524,1.648a.206.206,0,0,0-.028.09,157.421,157.421,0,0,0-3.945,17.145c-.007.037.048.056.056.018.6-2.9,1.259-5.819,2-8.734a.205.205,0,0,0,.082-.016,12.154,12.154,0,0,1,3.645-.926c.083-.007.077-.152-.008-.148a13.669,13.669,0,0,0-3.605.658c.673-2.628,1.4-5.249,2.226-7.833a38.766,38.766,0,0,1,8.237-1.077c.028,0,.033-.043,0-.044a31.145,31.145,0,0,0-8.1.687c.143-.443.292-.884.441-1.325a41.707,41.707,0,0,1,5.481-.929c.033,0,.031-.06,0-.059a26.618,26.618,0,0,0-5.367.652c.756-2.235,1.572-4.44,2.478-6.587A39.917,39.917,0,0,1,133,265.928a33.547,33.547,0,0,1,4.446-.793c.043,0,.038-.071,0-.074a11.991,11.991,0,0,0-4.157.411c.731-1.18,1.5-2.336,2.32-3.455h0c3.115-.689,6.272-1.329,9.457-.731.055.01.075-.082.021-.1-3.033-.8-6.043-.337-9.061.26.329-.438.666-.87,1.006-1.3a20.659,20.659,0,0,1,5.819-.914.032.032,0,0,0,.006-.064,15.185,15.185,0,0,0-5.426.482c2.576-3.2,5.419-6.2,8.231-9.175C145.79,250.337,145.689,250.257,145.55,250.393Z" transform="translate(-121.24 -245.636)"/><path class="c" d="M152.945,267.855a12.7,12.7,0,0,0-2.762-.1.1.1,0,0,0,.01.2c.914.027,1.828-.041,2.743.009A.055.055,0,0,0,152.945,267.855Z" transform="translate(-128.791 -250.448)"/><path class="c" d="M138.568,292.8a12.516,12.516,0,0,0-4.281.859c-.034.012-.015.069.02.061,1.414-.336,2.843-.473,4.271-.709A.107.107,0,0,0,138.568,292.8Z" transform="translate(-124.409 -257.387)"/><path class="c" d="M135.358,284.2a9.079,9.079,0,0,0-1.817.164.055.055,0,0,0,.006.108,9.108,9.108,0,0,0,1.821-.085A.1.1,0,0,0,135.358,284.2Z" transform="translate(-124.196 -255.006)"/></g><g transform="translate(0 54.626)"><path class="a" d="M66.494,271.888A63.1,63.1,0,0,1,79.4,277.967a38.573,38.573,0,0,1,10.754,10.217,95.5,95.5,0,0,1,13.789,27.841A74.255,74.255,0,0,1,107.074,333a.164.164,0,0,1-.326.03A96.414,96.414,0,0,0,98.337,304.2c-4.211-8.932-9.53-18.44-17.662-24.355-4.428-3.22-9.4-5.328-14.365-7.558C66.05,272.165,66.235,271.8,66.494,271.888Z" transform="translate(-65.776 -271.572)"/><path class="a" d="M100.548,309.537a57.8,57.8,0,0,0-10.278-7.474c-5.74-3.188-10.406-5.287-11.829-8.073s3.008-6.4,3.008-6.4-5.862,2.874-8.293.764-7.536-16.895-7.536-16.895S79.152,276.27,87.6,286.024,100.548,309.537,100.548,309.537Z" transform="translate(-65.62 -271.456)"/><path class="c" d="M102.155,307.731c-6.768-12.7-15.8-24.195-28.173-31.78a0,0,0,0,0-.006.008,62.169,62.169,0,0,1,9.057,7.088,14.343,14.343,0,0,0-7.275,1.536.042.042,0,0,0,.037.076,19.929,19.929,0,0,1,7.486-1.265.151.151,0,0,0,.085-.032q.659.625,1.3,1.267a23.023,23.023,0,0,0-3.888.516.027.027,0,0,0,.011.053,19.866,19.866,0,0,1,4.106-.339,85.012,85.012,0,0,1,6.383,7.247,6.49,6.49,0,0,0-2.718.2.052.052,0,0,0,.02.1,14.543,14.543,0,0,1,2.9-.04c.37.471.745.94,1.108,1.418a26.249,26.249,0,0,0-8.213.8.032.032,0,0,0,.012.063,33.067,33.067,0,0,1,8.435-.548c.345.458.672.929,1.01,1.392a17.81,17.81,0,0,0-4.889.56c-.061.015-.044.112.019.1a18.7,18.7,0,0,1,5.061-.394c1.456,2.006,2.85,4.056,4.19,6.131a4.568,4.568,0,0,0-2.145.129.03.03,0,0,0,.012.059,9.335,9.335,0,0,1,2.322.109q1.808,2.814,3.486,5.677C101.985,308.02,102.245,307.9,102.155,307.731Z" transform="translate(-67.931 -272.699)"/><path class="c" d="M96.867,305.308a10.5,10.5,0,0,0-3.931.481c-.036.012-.027.066.011.059a30.415,30.415,0,0,1,3.91-.4A.07.07,0,0,0,96.867,305.308Z" transform="translate(-73.172 -280.814)"/><path class="c" d="M81.351,283.907a6.746,6.746,0,0,0-1.813.106c-.071.011-.048.115.02.107.6-.064,1.184-.041,1.781-.059A.077.077,0,0,0,81.351,283.907Z" transform="translate(-69.459 -274.894)"/></g><g transform="translate(21.837 91.793)"><g transform="translate(0 2.838)"><path class="b" d="M126.355,366.848H95.81l4.355-31.9,1.113-8.18h19.608l1.113,8.18Z" transform="translate(-95.81 -326.764)"/><path class="d" d="M123.665,334.944H101.831l1.113-8.18h19.608Z" transform="translate(-97.476 -326.764)"/></g><rect class="b" width="25.216" height="6.928" transform="translate(2.664)"/></g></g></g><g transform="translate(68.039 291.858)"><line class="e" x2="439.828"/></g><g transform="translate(81.994 300.317)"><g transform="translate(0 0)"><ellipse class="a" cx="207.406" cy="22.726" rx="207.406" ry="22.726"/></g></g><g transform="translate(99.499 77.975)"><g transform="translate(0 0)"><g transform="translate(0 61.12)"><g transform="translate(36.788 13.179)"><g transform="translate(47.474 118.942)"><path class="f" d="M286.31,401.7c-1.686.571-50.013.741-51.86-.417-.7-.435-1.139-7.473-1.423-15.99-.062-1.839-.114-3.739-.156-5.669l-3.919-25.776,32.307-.208,3.05,25.782-.124,5.671s18.532,8.211,20.421,9.7S288,401.132,286.31,401.7Z" transform="translate(-228.952 -353.643)"/><path class="c" d="M287.809,411.565c-1.686.571-50.013.741-51.86-.417-.853-.535-1.319-10.811-1.579-21.659l31.438-.2-.124,5.671s18.532,8.211,20.421,9.7S289.5,410.994,287.809,411.565Z" transform="translate(-230.451 -363.505)"/><g transform="translate(4.075 23.019)"><path class="g" d="M287.869,413.734c-1.686.571-50.013.741-51.86-.417-.7-.435-1.139-7.473-1.423-15.99l31.158-.2s18.532,8.211,20.421,9.7S289.556,413.164,287.869,413.734Z" transform="translate(-234.586 -388.694)"/><g transform="translate(3.09)"><g transform="translate(0 9.228)"><path class="h" d="M288.592,417.386c-8.1-.17-40.8-.093-48.817.354-.065,0-.065.048,0,.051,8.027.344,40.718,0,48.817-.272C288.763,417.513,288.762,417.39,288.592,417.386Z" transform="translate(-239.098 -403.504)"/><path class="h" d="M299.05,408.146a6.508,6.508,0,0,0-4.839,2,6.305,6.305,0,0,0-1.8,4.332c0,.048.09.048.1,0a7.52,7.52,0,0,1,6.537-6.225A.051.051,0,0,0,299.05,408.146Z" transform="translate(-253.676 -400.969)"/><path class="h" d="M278.558,398.226c-3.243-.034-7,1.124-9,3.783-.078.1.069.212.166.162a44.842,44.842,0,0,1,8.895-3.546A.2.2,0,0,0,278.558,398.226Z" transform="translate(-247.345 -398.225)"/><path class="h" d="M282.023,399.563c-3.243-.034-7,1.124-9,3.783-.078.1.07.212.166.162a44.817,44.817,0,0,1,8.9-3.546A.2.2,0,0,0,282.023,399.563Z" transform="translate(-248.304 -398.595)"/><path class="h" d="M285.489,400.9c-3.243-.034-7,1.124-9,3.783-.077.1.07.212.166.162a44.835,44.835,0,0,1,8.895-3.546A.2.2,0,0,0,285.489,400.9Z" transform="translate(-249.263 -398.965)"/><path class="h" d="M288.954,402.237c-3.243-.034-7,1.124-9,3.783-.078.1.069.212.166.162a44.779,44.779,0,0,1,8.9-3.546A.2.2,0,0,0,288.954,402.237Z" transform="translate(-250.222 -399.335)"/><path class="h" d="M241.571,407.259c-3.638.024-3.608,5.677.036,5.654S245.215,407.236,241.571,407.259Z" transform="translate(-238.858 -400.725)"/></g><path class="h" d="M283.893,386.031c-1.646-1.355-3.709-.018-4.716,1.4a17.014,17.014,0,0,0-2.918,8.3.086.086,0,0,0,.1.093.4.4,0,0,0,.584.26c2.3-1.605,4.964-3.035,6.706-5.3C284.668,389.463,285.449,387.313,283.893,386.031Zm-3.954,6.906c-1.113.817-2.26,1.574-3.343,2.432a50.914,50.914,0,0,1,1.81-4.811,18.3,18.3,0,0,1,1.177-2.192c.7-1.073,3.873-3.795,4.209-.268C283.976,390.042,281.266,391.963,279.938,392.937Z" transform="translate(-249.207 -385.468)"/><path class="h" d="M263.793,399.212c2.825.424,5.734-.391,8.506-.83a.4.4,0,0,0,.241-.592.085.085,0,0,0,.009-.137,17.013,17.013,0,0,0-7.858-3.961c-1.708-.323-4.122.144-4.369,2.262C260.09,397.957,262.144,398.965,263.793,399.212Zm-1.965-1.839c-2.2-2.774,1.97-3.013,3.22-2.725a18.259,18.259,0,0,1,2.367.764,50.929,50.929,0,0,1,4.641,2.212c-1.376.132-2.727.382-4.1.565C266.329,398.408,263.044,398.9,261.829,397.374Z" transform="translate(-244.792 -387.718)"/></g></g></g><path class="i" d="M163.318,189.2s37.518,63.825,38.523,68.306c1.544,6.885,9.726,74.889,9.726,74.889l39.038-.7s-6.728-59.957-13.1-79.71c-4.59-14.228-37.7-61.416-37.7-61.416Z" transform="translate(-163.318 -189.203)"/><g transform="translate(6.271 5.824)"><path class="h" d="M266.473,377.9c-5.606-.04-25.472-.264-32.935.432-.057.006-.056.1,0,.108,2.569.369,27.333-.205,32.936-.385A.077.077,0,1,0,266.473,377.9Z" transform="translate(-189.006 -247.219)"/><path class="h" d="M172.121,197.288c2.459,3.856,5.052,7.632,7.566,11.454s5.021,7.654,7.494,11.505q7.414,11.544,14.482,23.3a71.052,71.052,0,0,1,5.849,11.378,69.566,69.566,0,0,1,3.293,12.25c.765,4.19,1.269,8.42,1.745,12.649q.759,6.754,1.508,13.509l3.086,27.642q.19,1.7.363,3.392c.017.166-.28.2-.3.033-1.149-9.156-2.1-18.339-3.146-27.507L212.5,283.2c-.483-4.244-.943-8.493-1.6-12.715a84.075,84.075,0,0,0-2.75-12.291,59.255,59.255,0,0,0-5.4-11.945c-4.524-7.8-9.311-15.471-14.1-23.121-4.83-7.715-9.7-15.409-14.753-22.988-.624-.936-1.253-1.866-1.9-2.788C171.95,197.282,172.073,197.213,172.121,197.288Z" transform="translate(-171.988 -197.255)"/></g></g><g transform="translate(0 121.577)"><path class="f" d="M161.545,401.435c-1.78-.109-47.736-18.729-49.017-20.494a.643.643,0,0,1-.07-.34c.009-1.58,3.191-7.112,5.851-14.369.167-.464,1.353-2.618,3-5.523,4.526-7.977,12.532-21.643,12.532-21.643L163.879,351,149.5,372.524l-2.238,5.209s14.1,14.569,15.288,16.654S163.319,401.536,161.545,401.435Z" transform="translate(-112.458 -339.066)"/><path class="c" d="M161.545,409.714c-1.78-.109-47.736-18.729-49.017-20.494a.642.642,0,0,1-.07-.34c.009-1.581,3.191-7.112,5.851-14.37.167-.464,1.353-2.618,3-5.522L149.5,380.8l-2.238,5.209s14.1,14.569,15.288,16.654S163.319,409.815,161.545,409.714Z" transform="translate(-112.458 -347.345)"/><g transform="translate(0 27.167)"><path class="g" d="M161.542,411.823c-1.778-.1-47.735-18.726-49.013-20.492-.488-.667,1.567-6.944,5.776-14.706l28.957,11.5s14.1,14.564,15.292,16.652S163.32,411.926,161.542,411.823Z" transform="translate(-112.459 -376.625)"/><g transform="translate(3.719 5.335)"><g transform="translate(0 3.233)"><path class="h" d="M163.04,415.568c-7.446-3.2-37.781-15.391-45.384-17.985-.061-.021-.078.02-.019.047,7.311,3.331,37.744,15.278,45.354,18.062C163.152,415.75,163.2,415.635,163.04,415.568Z" transform="translate(-117.6 -390.99)"/><path class="h" d="M175.36,411.516a6.507,6.507,0,0,0-5.234.034,6.309,6.309,0,0,0-3.29,3.342c-.016.046.066.08.091.036a7.521,7.521,0,0,1,8.4-3.317A.051.051,0,0,0,175.36,411.516Z" transform="translate(-131.222 -394.699)"/><path class="h" d="M160.44,394.778c-2.993-1.248-6.908-1.583-9.765.129-.111.066-.015.222.093.212a44.844,44.844,0,0,1,9.576.05A.2.2,0,0,0,160.44,394.778Z" transform="translate(-126.738 -389.925)"/><path class="h" d="M163.151,397.317c-2.993-1.248-6.908-1.583-9.765.129-.111.067-.014.223.093.212a44.843,44.843,0,0,1,9.575.05A.2.2,0,0,0,163.151,397.317Z" transform="translate(-127.488 -390.628)"/><path class="h" d="M165.862,399.857c-2.994-1.248-6.909-1.583-9.765.129-.111.067-.014.223.093.213a44.8,44.8,0,0,1,9.575.05A.2.2,0,0,0,165.862,399.857Z" transform="translate(-128.238 -391.331)"/><path class="h" d="M168.572,402.4c-2.993-1.248-6.908-1.583-9.765.13-.111.066-.015.222.093.212a44.833,44.833,0,0,1,9.575.05A.2.2,0,0,0,168.572,402.4Z" transform="translate(-128.988 -392.033)"/><path class="h" d="M122.824,388.688c-3.381-1.343-5.473,3.909-2.088,5.254S126.211,390.033,122.824,388.688Z" transform="translate(-117.991 -388.47)"/></g><path class="h" d="M169.037,385.383c-1.018-1.874-3.431-1.408-4.9-.473a17.017,17.017,0,0,0-5.818,6.6.085.085,0,0,0,.059.124c-.022.241.161.524.444.459,2.737-.623,5.74-.951,8.2-2.4C168.468,388.855,170,387.155,169.037,385.383Zm-6.256,4.918c-1.339.339-2.686.611-4.011,1a50.9,50.9,0,0,1,3.483-3.78,18.323,18.323,0,0,1,1.913-1.59c1.052-.733,5.015-2.064,4,1.33C167.609,389.131,164.377,389.9,162.781,390.3Z" transform="translate(-128.864 -384.026)"/><path class="h" d="M146.49,389.605c2.459,1.453,5.462,1.79,8.2,2.422.284.066.467-.217.446-.458a.086.086,0,0,0,.06-.124,17.01,17.01,0,0,0-5.8-6.618c-1.462-.94-3.875-1.413-4.9.457C143.528,387.053,145.054,388.757,146.49,389.605Zm-1.131-2.441c-1-3.4,2.955-2.054,4.006-1.318a18.357,18.357,0,0,1,1.908,1.6,50.889,50.889,0,0,1,3.471,3.791c-1.324-.393-2.67-.668-4.008-1.012C149.142,389.811,145.911,389.037,145.359,387.164Z" transform="translate(-124.957 -384.001)"/></g></g></g><g transform="translate(5.737)"><path class="i" d="M154.013,324.814,120.39,311.237s41.689-61.3,42-65.86c.273-4.041-18.038-39.21-18.76-49.459-.779-11.061,4.548-19.622,10.4-24.935l34.687,14.744a30.207,30.207,0,0,1-9.427,9.117s17.788,40.651,16.779,53.15C195.051,260.561,154.013,324.814,154.013,324.814Z" transform="translate(-120.39 -170.983)"/><g transform="translate(6.232 2.972)"><path class="h" d="M157.891,370.355c-4.862-2.091-3.437-1.559-8.323-3.6-2.391-1-18.107-7.53-20.5-8.068a.056.056,0,0,0-.041.1c2.092,1.281,17.919,7.539,20.329,8.49,4.924,1.941,3.531,1.33,8.477,3.217A.077.077,0,0,0,157.891,370.355Z" transform="translate(-129.006 -225.89)"/><g transform="translate(47.738 12.167)"><path class="h" d="M205.642,202.94a65.332,65.332,0,0,0-10.564,3.426.111.111,0,0,0,.072.211c3.546-1.035,7.151-2,10.633-3.225A.217.217,0,0,0,205.642,202.94Z" transform="translate(-195.004 -194.962)"/><path class="h" d="M203.507,200.9a15.47,15.47,0,0,0-.89,1.858,4.273,4.273,0,0,0-.456,1.558c0,.1.141.129.205.066a5.514,5.514,0,0,0,.872-1.468c.3-.573.6-1.14.881-1.72C204.3,200.811,203.718,200.535,203.507,200.9Z" transform="translate(-196.984 -194.352)"/><path class="h" d="M204.188,195.2c.213-.534.427-1.067.651-1.6.232-.548.5-1.088.691-1.651.03-.089.17-.03.135.06-.211.535-.35,1.1-.52,1.654s-.351,1.1-.533,1.649c-.34,1.021-.756,2.034-1.194,3.018a3.792,3.792,0,0,0,1.667-.289,3,3,0,0,0,1.175-1.411c.305-.6.587-1.208.9-1.8a12.751,12.751,0,0,0,.962-2.013c.029-.09.167-.03.135.06a23.237,23.237,0,0,1-1.848,4.277c-.32.53-.578,1.082-1.167,1.29a4.883,4.883,0,0,1-1.98.132c-.081.022-.186-.03-.158-.128A33.939,33.939,0,0,1,204.188,195.2Z" transform="translate(-197.245 -191.912)"/></g><path class="h" d="M202.514,205.785c1.232,2.613,2.316,5.217,3.469,7.821,1.126,2.545,2.18,5.118,3.2,7.706,2.069,5.227,3.922,10.55,5.547,15.932q1.208,3.995,2.215,8.045a58.637,58.637,0,0,1,1.606,8.223,21.723,21.723,0,0,1-.7,8.244,47.758,47.758,0,0,1-3.061,7.686c-.754,1.565-1.013,1.353-.648.564,1.035-2.24,3.746-9.031,3.549-14.74a42.7,42.7,0,0,0-1.282-8.143c-.635-2.733-1.353-5.445-2.134-8.139-1.541-5.307-3.371-10.509-5.253-15.7-1.055-2.91-2.187-5.79-3.257-8.694-1.078-2.926-2.19-5.558-3.387-8.751A.07.07,0,0,1,202.514,205.785Z" transform="translate(-149.307 -183.573)"/><path class="h" d="M167.224,191.1c.6-.223,1.438.146,2.052.249a17.721,17.721,0,0,0,4.746.158,5.087,5.087,0,0,0,2.263-.6,11.363,11.363,0,0,0,2.885-3.064,17.562,17.562,0,0,0,2.25-3.95c.031-.085.153-.027.127.057-.253.806-.441,1.619-.763,2.407a15.259,15.259,0,0,1-1.11,2.133,9.157,9.157,0,0,1-2.995,3.4,8.682,8.682,0,0,1-4.749.659,18.055,18.055,0,0,1-2.678-.357c-.637-.134-1.707-.236-2.114-.8A.2.2,0,0,1,167.224,191.1Z" transform="translate(-139.546 -177.515)"/><path class="h" d="M133.652,305.965q8.29-12.546,16.278-25.289,8.01-12.774,15.75-25.714a35.927,35.927,0,0,0,3.461-6.406c.866-2.483.374-4.887-.41-7.316a123.391,123.391,0,0,0-5.162-13.051c-1.939-4.273-4.027-8.477-6.08-12.7a122.284,122.284,0,0,1-5.75-12.78,21.866,21.866,0,0,1-.9-12.913c1.123-4.323,3.554-8.2,6.093-11.826.67-.956,1.352-1.9,2.025-2.856.051-.072.161.015.108.087a50.425,50.425,0,0,0-7.167,12.207,21.1,21.1,0,0,0-1.387,6.838,22.1,22.1,0,0,0,1.092,6.992,92.145,92.145,0,0,0,5.509,12.693c2.046,4.224,4.146,8.422,6.119,12.68a134.954,134.954,0,0,1,5.366,13.106,18.418,18.418,0,0,1,1.392,6.207,13.516,13.516,0,0,1-2.319,6.409c-5.029,8.576-10.249,17.044-15.533,25.464q-7.957,12.677-16.208,25.167-1.038,1.575-2.082,3.148C133.754,306.248,133.566,306.095,133.652,305.965Z" transform="translate(-130.285 -175.092)"/></g></g></g><g transform="translate(35.474)"><g transform="translate(38.405 30.767)"><path class="f" d="M217.183,135.373c3.13,6.872,18.946,16.342,26.353,17.36,5.329.732,21.511.984,27.06.137,6.5-.993,1.533-18.539-2.31-18.09-10.559,1.235-19.526,2.609-22.345,2.609-3.442,0-22.07-5.979-24.314-6.82C216.134,128.51,215.407,131.475,217.183,135.373Z" transform="translate(-215.074 -129.261)"/><path class="j" d="M216.8,136.95c3.963,5.865,17.14,15.454,17.14,15.454l1.828-4.052,6.051-13.392s-12.1-3.818-20.063-5.519a17.555,17.555,0,0,0-2.849-.406C213.828,128.761,213.386,131.9,216.8,136.95Z" transform="translate(-214.598 -129.018)"/><path class="j" d="M216.8,136.95c3.963,5.865,17.14,15.454,17.14,15.454l1.828-4.052c-4.914-5.7-12.5-14.348-16.861-19.317C213.828,128.761,213.386,131.9,216.8,136.95Z" transform="translate(-214.598 -129.018)"/><path class="h" d="M238.058,152.03c1-2.461,5.478-12.393,6.588-14.477.077-.145.187-.133.126.027a146.539,146.539,0,0,1-6.616,14.483C238.129,152.122,238.033,152.092,238.058,152.03Z" transform="translate(-221.088 -131.351)"/><g transform="translate(51.275 4.592)"><path class="f" d="M285.487,136.486c6.427-.843,14.377-2.284,21.109.574a3.624,3.624,0,0,1,1.8,1.544c3.04,1.227,3.373,3.031,3.373,3.031,2.482,2.011,2.569,3.9,2.569,3.9s3.554,1.48,3.015,3.776c-.6,2.577-5.47-.006-9.018.213-8.131.5-19.549,3.489-21.88,3.866Z" transform="translate(-285.487 -135.367)"/><path class="h" d="M304.749,147.195a52.432,52.432,0,0,1,7.143-.035,52.645,52.645,0,0,1,7.671,1.554.063.063,0,0,0,.039-.121,27.7,27.7,0,0,0-14.86-1.506C304.628,147.107,304.628,147.2,304.749,147.195Z" transform="translate(-290.791 -138.497)"/><path class="h" d="M303.336,140.6a38.594,38.594,0,0,1,13.316,2.509c.022.007.043-.028.02-.04a24.858,24.858,0,0,0-13.333-2.581C303.191,140.495,303.181,140.594,303.336,140.6Z" transform="translate(-290.395 -136.762)"/><path class="h" d="M302.646,136.986a39.041,39.041,0,0,1,10.443,2.039c.023.007.041-.03.017-.041a23.277,23.277,0,0,0-10.472-2.136C302.488,136.845,302.492,136.978,302.646,136.986Z" transform="translate(-290.202 -135.777)"/><path class="f" d="M298.946,156.636c-1.033.485-.786,1.031,1.19,1.488,2,.468,10.187.592,9.9,3.452s-11.87,2.5-15.1,1.489a53.827,53.827,0,0,1-8.106-3.787C289.094,158.9,294.507,157.443,298.946,156.636Z" transform="translate(-285.858 -141.251)"/></g></g><g transform="translate(0 28.259)"><path class="h" d="M228.483,152.6c-.05,1.235-.171,2.494-.345,3.74.017-.045.036-.088.053-.133.242-.651.475-1.319.767-1.948.016-.033.075-.025.067.016a10.764,10.764,0,0,1-.626,2.013c-.124.307-.251.615-.385.919-.09.555-.189,1.107-.3,1.651-.213,1.034-1.191,5.434-1.413,6.178-.047.157-.233.121-.221-.054.054-.81.873-5.393,1.039-6.43a56.481,56.481,0,0,1,1.289-5.971C228.418,152.533,228.484,152.554,228.483,152.6Z" transform="translate(-179.369 -133.022)"/><path class="j" d="M203.075,178.009c-1.93.995-4.418,2.536-15.628.328-.7-.142-1.405-.315-2.112-.524-10.513-3.158-23.122-15.521-23.833-16.393,0,0,16.7-27.074,38.057-35.585,2.64-1.052,7.011.976,9.431,3.5.864.9,2.739,7.544,2.02,12.928S205.018,177.024,203.075,178.009Z" transform="translate(-161.502 -125.552)"/><g transform="translate(5.759 3.508)"><line class="k" x1="0.47" y2="3.372" transform="translate(33.853 12.959)"/><line class="k" x1="0.47" y2="3.372" transform="translate(26.572 31.396)"/><line class="k" x1="0.47" y2="3.372" transform="translate(14.194 17.462)"/><line class="k" x1="0.47" y2="3.372" transform="translate(38.623 30.46)"/><line class="k" x2="3.372" y2="0.47" transform="translate(23.199 15.07)"/><line class="k" x2="3.372" y2="0.47" transform="translate(9.151 28.391)"/><line class="k" x2="3.372" y2="0.47" transform="translate(25.677 42.808)"/><line class="k" x2="3.372" y2="0.47" transform="translate(4.821 37.57)"/><line class="k" x2="3.372" y2="0.47" transform="translate(34.217)"/><line class="k" x1="2.717" y2="2.052" transform="translate(27.418 4.614)"/><line class="k" x1="2.716" y2="2.053" transform="translate(5.143 17.725)"/><line class="k" x1="2.716" y2="2.052" transform="translate(32.952 23.647)"/><line class="k" x1="2.716" y2="2.052" transform="translate(14.943 34.987)"/><line class="k" x1="2.717" y2="2.053" transform="translate(39.852 8.15)"/><line class="k" x1="2.053" y1="2.717" transform="translate(40.139 18.578)"/><line class="k" x1="2.053" y1="2.716" transform="translate(0 27.63)"/><line class="k" x1="2.053" y1="2.717" transform="translate(35.261 38.406)"/><line class="k" x1="2.052" y1="2.717" transform="translate(17.59 7.7)"/><line class="k" x1="2.052" y1="2.716" transform="translate(17.902 44.538)"/><line class="k" x1="2.052" y1="2.716" transform="translate(20.906 22.807)"/></g></g><g transform="translate(37.951)"><g transform="translate(0 19.335)"><path class="f" d="M219.581,133.13c-2.722-.506-5.288-6.14-5.61-9.93-.021-.26,1.274-2.323,2.729-4.9.877-1.571,1.816-3.34,2.557-5.016.15-.345,1.042.805,1.042.805l1.938,1.482,6.4,4.912a29.216,29.216,0,0,0-3.86,5.988,4.169,4.169,0,0,0-.231.72c-.01.033-.018.075-.035.121C224.152,128.706,222.212,133.617,219.581,133.13Z" transform="translate(-213.971 -113.214)"/><path class="l" d="M226.4,127.565c-.01.033-.018.075-.035.121a7.3,7.3,0,0,1-1.106-.42c-7.01-3.285-3.917-12.677-3.917-12.677l2.744,1.357,6.4,4.912a29.215,29.215,0,0,0-3.86,5.988A4.171,4.171,0,0,0,226.4,127.565Z" transform="translate(-215.823 -113.594)"/></g><g transform="translate(2.113)"><path class="h" d="M244.418,95.582a7.329,7.329,0,0,1,3.223,5.649c.021,3.616-1.419,7.153-1.753,7.279S244.418,95.582,244.418,95.582Z" transform="translate(-224.508 -89)"/><g transform="translate(2.67 3.47)"><path class="f" d="M221.928,96.268c-1.925,3.8-1.828,15.768.576,18.853,3.486,4.471,10.2,6.011,14.254,1.591,3.929-4.285,3.526-19.88.746-22.786C233.411,89.645,224.773,90.653,221.928,96.268Z" transform="translate(-220.583 -91.28)"/></g><path class="m" d="M222.87,124.013v0" transform="translate(-218.546 -96.866)"/><g transform="translate(11.916 13.366)"><g transform="translate(0.544 3.843)"><path class="h" d="M236.237,111.429c-.007-.031-.063.04-.061.073.045.815-.041,1.756-.772,2.044-.023.009-.02.05.008.046C236.308,113.444,236.41,112.194,236.237,111.429Z" transform="translate(-234.469 -110.592)"/><path class="h" d="M235.137,110.277c-1.314-.069-1.355,2.565-.138,2.629C236.2,112.968,236.239,110.335,235.137,110.277Z" transform="translate(-234.118 -110.275)"/></g><g transform="translate(6.709 3.807)"><path class="h" d="M242.707,111.387c.007-.031.063.04.061.073-.038.815.054,1.756.788,2.038.023.009.02.049-.007.045C242.651,113.4,242.539,112.153,242.707,111.387Z" transform="translate(-242.641 -110.545)"/><path class="h" d="M243.458,110.227c1.314-.079,1.374,2.554.158,2.627C242.417,112.927,242.356,110.293,243.458,110.227Z" transform="translate(-242.65 -110.226)"/></g><path class="h" d="M234.1,106.8a10.27,10.27,0,0,0,1.026-.343,1.747,1.747,0,0,0,.979-.549.557.557,0,0,0-.079-.676,1.38,1.38,0,0,0-1.389-.165,2.028,2.028,0,0,0-1.183.859A.594.594,0,0,0,234.1,106.8Z" transform="translate(-233.366 -104.962)"/><path class="h" d="M244.2,108.44a10.33,10.33,0,0,1-1.042-.289,1.746,1.746,0,0,1-1.007-.5.558.558,0,0,1,.043-.679,1.381,1.381,0,0,1,1.379-.237,2.024,2.024,0,0,1,1.227.795A.594.594,0,0,1,244.2,108.44Z" transform="translate(-235.77 -105.432)"/><path class="h" d="M233.963,122.112c.192.195.383.461.678.49a2.144,2.144,0,0,0,.88-.191.029.029,0,0,1,.035.043,1.1,1.1,0,0,1-1.042.426.867.867,0,0,1-.63-.731C233.873,122.1,233.935,122.084,233.963,122.112Z" transform="translate(-233.509 -109.703)"/><g transform="translate(1.657 1.04)"><path class="h" d="M239.191,114.281s.035,1.221-.027,1.788a11.911,11.911,0,0,0-3.33.119c-.258.056-.233-.153.066-.291a4.863,4.863,0,0,1,2.83-.375c.057-.153-.088-1.878,0-1.876a4.97,4.97,0,0,1,1.257.433c0-2.545-.405-5.07-.366-7.6a.078.078,0,0,1,.152-.02,41.137,41.137,0,0,1,.742,8.173C240.529,114.956,239.408,114.4,239.191,114.281Z" transform="translate(-235.657 -106.399)"/></g><g transform="translate(1.015 10.272)"><path class="h" d="M237.32,119.167a3.659,3.659,0,0,1-1.519,1.815c-1.094.443-1.469-.547-.352-1.422A3.525,3.525,0,0,1,237.32,119.167Z" transform="translate(-234.771 -119.163)"/><path class="n" d="M236.18,120.993a1.477,1.477,0,0,1-.383.224c-1.005.405-1.4-.4-.593-1.208C235.753,120.052,236.353,120.255,236.18,120.993Z" transform="translate(-234.77 -119.397)"/></g></g><g transform="translate(1.424)"><path class="h" d="M220.9,105.179c1.322.406,2.844-3.571,3.274-5.1.379-1.348.817-5.622.881-5.914s5.766,3.783,9.1,2.809,5.562-3.967,5.607-5.363-4.093-4.941-7.675-5.123-8.43,4.371-8.43,4.371a16.608,16.608,0,0,0,1.591-2.128,3.921,3.921,0,0,0-2.8,2.412s.458-2.069.283-2.108-1.973,1.734-1.567,3.077c0,0-2.08,1.8-2.273,3.777S219.345,104.7,220.9,105.179Z" transform="translate(-218.861 -86.483)"/><path class="h" d="M238.405,98.691a11.172,11.172,0,0,1-3.149,1.127,7.5,7.5,0,0,1-3.594-.576,11.343,11.343,0,0,1-3.152-1.865c-.834-.686-1.573-1.515-2.464-2.126-.223-.153-.481.168-.344.373a11.982,11.982,0,0,0,6.049,4.453,6.877,6.877,0,0,0,6.666-1.358C238.429,98.708,238.422,98.684,238.405,98.691Z" transform="translate(-220.743 -88.898)"/></g><g transform="translate(0 14.776)"><path class="f" d="M221.737,110.477s-2.052-4.168-3.9-3.491-.712,6.434,1.178,7.488a2.062,2.062,0,0,0,2.9-.676Z" transform="translate(-216.892 -106.911)"/><path class="h" d="M218.69,109.284a.028.028,0,0,0-.019.052,5.215,5.215,0,0,1,2.168,3.634,1.139,1.139,0,0,0-1.637-.566c-.041.02-.015.083.027.081a1.268,1.268,0,0,1,1.313.65,6.118,6.118,0,0,1,.489,1.218c.046.136.284.1.258-.048l-.007-.035C221.593,112.482,220.586,109.76,218.69,109.284Z" transform="translate(-217.38 -107.568)"/></g></g></g><g transform="translate(29.915 32.09)"><g transform="translate(1.28 1.906)"><path class="f" d="M204.781,136.431c-1.414,8.194,7.433,35.8,13.129,40.961,8.471,7.669,24.133,12.712,29.808,14.353,2.473.715,9.316-16.69,6.814-17.836-5.36-2.455-22.011-7.648-23.578-8.982s-11.135-15.1-15.389-23.039C209.859,131.235,205.5,132.286,204.781,136.431Z" transform="translate(-204.63 -133.483)"/><g transform="translate(35.788 38.894)"><path class="o" d="M264.008,187.255s7.386,1.882,12.158,3.34c2.662.813,7.1,2.615,8.785,4.107,2.516,2.232,11.616,13.174,9.011,15.438-2.358,2.048-8.983-8.345-8.983-8.345s7.612,9.9,4.318,11.842-9.217-10.793-9.217-10.793,7.593,10.343,3.879,11.812c-2.806,1.11-8.821-10.125-8.821-10.125s6.464,8.936,3.627,10.2c-3.135,1.4-9.337-8.624-9.337-8.624-7.752,2-12.264-.214-15.284-2.174C253.413,203.46,264.008,187.255,264.008,187.255Z" transform="translate(-254.108 -187.255)"/><g transform="translate(19.704 10.938)"><path class="h" d="M293.431,202.388c.936,1.13,1.891,2.268,2.724,3.477s1.623,2.449,2.339,3.731a25.059,25.059,0,0,1,2.312,5.252,54,54,0,0,0-4.992-8.766c-.831-1.207-1.6-2.456-2.431-3.664C293.363,202.387,293.409,202.361,293.431,202.388Z" transform="translate(-284.677 -202.377)"/><path class="h" d="M287.321,206.435c1.6,1.272,4.971,6.007,6.268,9.18.055.133-.017.122-.1,0-1.017-1.567-5.123-7.645-6.21-9.156C287.267,206.436,287.3,206.418,287.321,206.435Z" transform="translate(-282.99 -203.498)"/><path class="h" d="M281.434,208.963a22.528,22.528,0,0,1,4.644,7.249c.055.132-.05.111-.126-.013-1.5-2.439-2.656-4.363-4.594-7.172C281.327,208.983,281.39,208.92,281.434,208.963Z" transform="translate(-281.349 -204.195)"/></g></g></g><path class="j" d="M212.342,136.3c-6.6-9.341-10.551-5.878-9.227,4.261a162.628,162.628,0,0,0,4.562,20.778l16.667-8.072S216.568,142.282,212.342,136.3Z" transform="translate(-202.86 -130.848)"/><g transform="translate(2.126 0.282)"><line class="k" x2="0.582" y2="3.355" transform="translate(11.392 8.846)"/><line class="k" y1="0.582" x2="3.355" transform="translate(1.531 13.943)"/><line class="k" x1="1.961" y2="2.784"/><line class="k" x1="1.961" y2="2.784" transform="translate(14.063 18.888)"/><line class="k" x1="2.784" y1="1.961" transform="translate(1.709 22.593)"/></g><path class="h" d="M219.011,142.273c.887,1.22,1.805,2.417,2.721,3.615-.232-.606-.433-1.218-.613-1.844a.023.023,0,0,1,.044-.014c.185.48.391.953.568,1.435q.128.348.261.694l.059.148c.712.935,1.422,1.873,2.108,2.827.818,1.139,1.608,2.3,2.4,3.454.82,1.2,1.6,2.6,2.463,3.758a9.359,9.359,0,0,1-1.62.808c-.148.082-.249-.062-.091-.109s1.373-.8,1.388-.814c-.793-1.166-1.714-2.244-2.545-3.384s-1.656-2.267-2.457-3.42c-1.627-2.341-3.122-4.772-4.736-7.123C218.941,142.274,218.99,142.244,219.011,142.273Z" transform="translate(-207.314 -134.006)"/><path class="h" d="M203.743,152.283c.253.493.526.982.75,1.489.093.21.184.42.277.629q-.571-2.708-1.123-5.42c0-.022.028-.033.033-.011.764,2.927,1.535,5.852,2.244,8.793a85.748,85.748,0,0,1,1.88,8.5,9.975,9.975,0,0,1,1.565-.529,7.432,7.432,0,0,1-1.719.832,88.6,88.6,0,0,1-2.17-8.848c-.181-.81-.349-1.622-.522-2.434-.187-.489-.416-.961-.638-1.435-.236-.5-.425-1.029-.631-1.544C203.68,152.277,203.728,152.254,203.743,152.283Z" transform="translate(-203.078 -135.859)"/><path class="h" d="M209.875,166.369c2.315-1.306,11.989-6.313,14.153-7.257.15-.066.229.011.082.1a146.484,146.484,0,0,1-14.179,7.245C209.873,166.485,209.817,166.4,209.875,166.369Z" transform="translate(-204.795 -138.661)"/></g></g></g></g><g transform="translate(182.482 128.493)"><g transform="translate(32.155)"><path class="p" d="M492.018,362.921H271.638L303.5,182.2H523.884Z" transform="translate(-271.638 -163.484)"/><path class="p" d="M391.119,156.325H318.994l-3.3,18.716H392.88Z" transform="translate(-283.828 -156.325)"/><g class="q"><path d="M492.018,362.921H271.638L303.5,182.2H523.884Z" transform="translate(-271.638 -163.484)"/><path d="M391.119,156.325H318.994l-3.3,18.716H392.88Z" transform="translate(-283.828 -156.325)"/></g></g><g transform="translate(40.612 1.34)"><line class="r" y1="6.295" transform="translate(18.927)"/><line class="r" x1="3.147" y1="5.451" transform="translate(9.37 2.697)"/><line class="r" x1="5.451" y1="3.147" transform="translate(2.443 9.81)"/><line class="r" x1="6.295" transform="translate(0 19.435)"/><line class="r" x1="5.451" y2="3.147" transform="translate(2.697 25.844)"/><line class="r" x1="3.147" y2="5.451" transform="translate(9.81 30.468)"/><line class="r" y2="6.295" transform="translate(19.435 32.067)"/><line class="r" x2="3.147" y2="5.451" transform="translate(25.844 30.214)"/><line class="r" x2="5.451" y2="3.147" transform="translate(30.468 25.404)"/><line class="r" x2="6.295" transform="translate(32.067 18.927)"/><line class="r" y1="3.147" x2="5.451" transform="translate(30.214 9.37)"/><line class="r" y1="5.451" x2="3.147" transform="translate(25.404 2.443)"/></g><path class="j" d="M479.394,365.431H258.54L227.184,191.27H448.038Z" transform="translate(-227.184 -165.994)"/><g transform="translate(67.351 113.383)"><circle class="c" cx="9.18" cy="9.18" r="9.18"/><circle class="c" cx="9.18" cy="9.18" r="9.18" transform="translate(72.567 0)"/><path class="c" d="M390.629,335.9l-.5-.961c-.046-.087-4.788-8.853-14.33-8.853-8.7,0-10.824,8.254-10.91,8.6l-.257,1.052-2.1-.508.253-1.052c.025-.1,2.586-10.265,13.019-10.265,10.877,0,16.037,9.606,16.252,10.015l.5.961Z" transform="translate(-331.981 -316.079)"/></g></g><g transform="translate(420.036 76.013)"><g transform="translate(0 0)"><path class="s" d="M555.607,261.61c12.823-2.754,24.406-12.333,25.386-23.762,1.923-22.423-25.386-34.809-22.565-60.72,2.691-24.716,28.615-26.48,39.009-23.063,11.478,3.774,7.546,14.806-2.848,13.382-18.017-2.468-29.343-22.056-20.785-44.276,8.115-21.071,31.605-25.484,31.605-25.484" transform="translate(-555.607 -87.621)"/><g transform="translate(42.764)"><path class="h" d="M635.691,90.908c-1.846-5.717-14.2-3.663-11.788,3.806S637.537,96.625,635.691,90.908Z" transform="translate(-617.182 -84.837)"/><path class="a" d="M614.731,87.536c.092-2.507,3.58-4.436,8.511-3.546a27.647,27.647,0,0,1,9.574,4.21,27.546,27.546,0,0,1-9.857,3.509C617.975,92.236,614.639,90.056,614.731,87.536Z" transform="translate(-614.729 -83.77)"/><g transform="translate(2.75 1.547)"><path class="h" d="M633.868,89.679c-2.56.018-5.116-.068-7.673-.146-2.555-.11-5.111-.21-7.663-.417,2.561-.019,5.117.068,7.673.147C628.76,89.372,631.316,89.474,633.868,89.679Z" transform="translate(-618.532 -86.795)"/><path class="h" d="M621.583,85.908a20.4,20.4,0,0,1,2.115,1.165,20.065,20.065,0,0,1,1.972,1.394,19.873,19.873,0,0,1-2.116-1.165A20.185,20.185,0,0,1,621.583,85.908Z" transform="translate(-619.376 -85.908)"/><path class="h" d="M629.223,89.57a22.485,22.485,0,0,1-2.054,1.482,22,22,0,0,1-2.2,1.255,23.59,23.59,0,0,1,4.253-2.737Z" transform="translate(-620.313 -86.921)"/><path class="h" d="M631.877,87.618a5.39,5.39,0,0,1,1.871,1.508,5.093,5.093,0,0,1-1.021-.649A5.167,5.167,0,0,1,631.877,87.618Z" transform="translate(-622.224 -86.381)"/></g><g transform="translate(4.095 7.531)"><path class="a" d="M621,105.3c1.541,1.98,5.5,1.5,8.977-2.1a27.631,27.631,0,0,0,5.3-9.015A27.549,27.549,0,0,0,625.229,97.1C620.879,99.589,619.447,103.309,621,105.3Z" transform="translate(-620.391 -94.182)"/><g transform="translate(2.775)"><path class="h" d="M636.338,94.182c-2.086,1.483-4.11,3.047-6.138,4.606-2.009,1.583-4.022,3.16-5.972,4.819,2.088-1.482,4.111-3.047,6.138-4.605C632.375,97.418,634.388,95.841,636.338,94.182Z" transform="translate(-624.228 -94.182)"/><path class="h" d="M628.579,106.324a20.415,20.415,0,0,0,1.035-2.181,20.129,20.129,0,0,0,.784-2.284,20.02,20.02,0,0,0-1.035,2.181A20.277,20.277,0,0,0,628.579,106.324Z" transform="translate(-625.432 -96.306)"/><path class="h" d="M632.022,99.629a23.672,23.672,0,0,0-5.05.266,22.071,22.071,0,0,0,2.532,0A22.415,22.415,0,0,0,632.022,99.629Z" transform="translate(-624.987 -95.679)"/><path class="h" d="M635.93,99.739a5.125,5.125,0,0,0,.448-1.123,5.051,5.051,0,0,0,.187-1.194,5.063,5.063,0,0,0-.449,1.123A5.139,5.139,0,0,0,635.93,99.739Z" transform="translate(-627.466 -95.078)"/></g></g><path class="t" d="M639.235,90.546a2.167,2.167,0,1,1,1.4-2.728A2.167,2.167,0,0,1,639.235,90.546Z" transform="translate(-620.726 -84.474)"/><path class="t" d="M641.076,96.249a2.167,2.167,0,1,1,1.4-2.728A2.168,2.168,0,0,1,641.076,96.249Z" transform="translate(-621.235 -86.052)"/></g></g></g><g transform="translate(205.757 64.302)"><g transform="translate(0 0)"><path class="c" d="M299.341,87.705a18.022,18.022,0,0,1-30.12,11.4l-9.019,1.324,4.513-7.8a18.029,18.029,0,1,1,34.627-4.93Z" transform="translate(-259.594 -67.64)"/><path class="h" d="M299.109,87.645a18.148,18.148,0,0,1-3.638,9.139,16.3,16.3,0,0,1-3.536,3.492,17.771,17.771,0,0,1-4.349,2.421,17.977,17.977,0,0,1-4.853,1.157,17.767,17.767,0,0,1-2.5.048,15.8,15.8,0,0,1-2.495-.26,18.192,18.192,0,0,1-8.919-4.4l.213.066-9.01,1.383-.654.1.331-.576,4.486-7.813-.021.309a18.231,18.231,0,0,1,1.11-16.068,18.443,18.443,0,0,1,5.646-6.012,18.34,18.34,0,0,1,15.846-2.134,18.416,18.416,0,0,1,6.953,4.263A18.133,18.133,0,0,1,299.109,87.645Zm0,0a17.833,17.833,0,0,0-20.444-19.51,17.716,17.716,0,0,0-7.446,2.942,18.565,18.565,0,0,0-5.394,5.883,17.8,17.8,0,0,0-2.289,7.628,18.017,18.017,0,0,0,1.269,7.854l.065.161-.086.147-4.54,7.781-.323-.475,9.028-1.264.124-.017.089.083A17.755,17.755,0,0,0,277.8,103.3a15.435,15.435,0,0,0,2.446.3,17.446,17.446,0,0,0,2.467,0,17.759,17.759,0,0,0,4.815-1.06,16.756,16.756,0,0,0,4.348-2.344,16.194,16.194,0,0,0,3.544-3.451A18.116,18.116,0,0,0,299.109,87.645Z" transform="translate(-259.362 -67.579)"/><g transform="translate(13.002 7.971)"><path class="j" d="M277.338,97.224a1.753,1.753,0,0,1,1.763-1.854,1.856,1.856,0,0,1,0,3.707A1.752,1.752,0,0,1,277.338,97.224Zm.747-4.276-.418-14.35h2.869l-.418,14.35Z" transform="translate(-277.338 -78.599)"/><path class="j" d="M286.845,97.224a1.753,1.753,0,0,1,1.764-1.854,1.856,1.856,0,0,1,0,3.707A1.752,1.752,0,0,1,286.845,97.224Zm.747-4.276-.418-14.35h2.87l-.419,14.35Z" transform="translate(-279.968 -78.599)"/><path class="j" d="M296.352,97.224a1.754,1.754,0,0,1,1.764-1.854,1.856,1.856,0,0,1,0,3.707A1.752,1.752,0,0,1,296.352,97.224Zm.748-4.276-.419-14.35h2.87l-.419,14.35Z" transform="translate(-282.599 -78.599)"/></g></g></g></g></svg>