<svg xmlns="http://www.w3.org/2000/svg" xmlns:xlink="http://www.w3.org/1999/xlink" width="526" height="381.664" viewBox="0 0 526 381.664"><defs><style>.a{fill:#bdbdbd;}.b{fill:url(#a);}.c{fill:#f5dbd3;}.d{fill:url(#b);}.e{fill:#192b59;}.f{fill:url(#c);}.g{fill:url(#d);}.h{fill:#152b39;}.i{fill:url(#e);}.j{fill:#fff1ee;}.k{fill:url(#g);}</style><linearGradient id="a" x1="0.5" y1="-0.227" x2="0.5" y2="0.559" gradientUnits="objectBoundingBox"><stop offset="0" stop-color="#e5e5e5"/><stop offset="0.476" stop-color="#f3f3f3"/><stop offset="1" stop-color="#fff"/></linearGradient><linearGradient id="b" x1="86.402" y1="0.412" x2="87.007" y2="0.823" gradientUnits="objectBoundingBox"><stop offset="0.082" stop-color="#f6a025"/><stop offset="0.161" stop-color="#f3851c"/><stop offset="0.232" stop-color="#f27517"/><stop offset="0.287" stop-color="#f27016"/><stop offset="0.321" stop-color="#ef6d17"/><stop offset="0.497" stop-color="#e4651a"/><stop offset="0.701" stop-color="#e1631c"/><stop offset="0.848" stop-color="#e86819"/><stop offset="0.967" stop-color="#f27016"/></linearGradient><linearGradient id="c" x1="2.063" y1="1.174" x2="0.42" y2="0.49" gradientUnits="objectBoundingBox"><stop offset="0" stop-color="#fff"/><stop offset="1" stop-color="#fff1ee"/></linearGradient><linearGradient id="d" x1="0.202" y1="0.241" x2="1.023" y2="0.87" xlink:href="#b"/><linearGradient id="e" x1="0.404" y1="0.306" x2="0.835" y2="1.076" gradientUnits="objectBoundingBox"><stop offset="0" stop-color="#f8dcd2"/><stop offset="1" stop-color="#f2dad4"/></linearGradient><linearGradient id="g" x1="0.314" y1="0.412" x2="0.919" y2="0.823" xlink:href="#b"/></defs><g transform="translate(62 -36.424)"><g transform="translate(-62 203.581)"><path class="a" d="M1767.544,909.408a3.373,3.373,0,1,0-6.665,1.042c.484,3.141,1.1,12.984-2.3,16.944a4.533,4.533,0,0,1-2.738,1.575l.309-18.745a4.875,4.875,0,1,0-9.749.04l.881,35.573a4.55,4.55,0,0,1-2.853-1.59c-3.4-3.96-2.78-13.8-2.3-16.944a3.373,3.373,0,1,0-6.664-1.043c-.243,1.548-2.192,15.329,3.831,22.368a11.419,11.419,0,0,0,8.151,4.007l.383,15.484h7.36l.534-32.35a11.4,11.4,0,0,0,7.979-3.994C1769.737,924.737,1767.787,910.956,1767.544,909.408Z" transform="translate(-1335.108 -905.268)"/><path class="a" d="M1208.066,965.229a2.15,2.15,0,1,0-4.248.664c.308,2,.7,8.276-1.464,10.8a2.889,2.889,0,0,1-1.745,1l.2-11.949a3.108,3.108,0,1,0-6.215.026l.562,22.677a2.9,2.9,0,0,1-1.818-1.013c-2.165-2.525-1.772-8.8-1.464-10.8a2.15,2.15,0,1,0-4.248-.664c-.155.987-1.4,9.772,2.442,14.259a7.278,7.278,0,0,0,5.2,2.554l.245,9.871h4.692l.34-20.622a7.269,7.269,0,0,0,5.087-2.546C1209.464,975,1208.221,966.215,1208.066,965.229Z" transform="translate(-1122.79 -930.932)"/><ellipse class="b" cx="263" cy="85.931" rx="263" ry="85.931" transform="translate(0 42.645)"/></g><g transform="translate(147.748 36.424)"><path class="c" d="M1571.7,948.988s-.129,7.542,0,8.3-2.952,5.176-4.212,4.98-3.777-.616-4.14-1.035-.2-1.409-.074-2.313,1.071-9.118,1.071-9.537S1570.3,947.841,1571.7,948.988Z" transform="translate(-1498.471 -751.247)"/><path class="d" d="M1565.937,964.5c-1.575.851-2.459,3.441-2.683,3.473s-.64-.032-.64-.288.064-1.12-.224-1.12-.608,1.407-.672,3.455-.792,6.93,0,7.551c.5.389,5.055,2.784,5.183,3.1s-.1,2.56.288,2.911,1.279,1.216,1.983,1.248,4.768.448,6.687,0,4.351-1.376,4.415-1.632-.48-5.695-1.087-6.367-4.991-6.687-5.343-7.231a6.206,6.206,0,0,1-.608-2.624,3.38,3.38,0,0,0-1.987-2.846A9.04,9.04,0,0,0,1565.937,964.5Z" transform="translate(-1497.595 -758.896)"/><path class="c" d="M1488.756,957.646s0,4.392-.127,5.148,2.953,5.176,4.212,4.98,3.777-.615,4.141-1.035.2-1.409.074-2.314-.941-5.968-.941-6.387S1490.155,956.5,1488.756,957.646Z" transform="translate(-1461.501 -755.544)"/><path class="e" d="M1490.7,764.663c-1.782,6.48-5.152,28.679-5.152,39.466s-1.079,38.294-1.079,42.474-.45,14.551.63,15.091a10.8,10.8,0,0,0,7.022,1.62c3.421-.541,4.321-2.7,4.411-4.681s.9-16.2,1.711-21.7,3.691-16.082,5.581-22.9,6.3-20.511,7.472-20.458,8.46,30.063,9.068,31.764,1.765,25.867,1.84,27.894,0,3.981,1.277,4.807,5.182,2.854,7.209,3,3.379-3.079,3.755-4.056,1.041-33.3.8-42.166.461-25.4.051-30.793-1.728-16.946-2.567-19.377S1490.7,764.663,1490.7,764.663Z" transform="translate(-1459.394 -659.481)"/><path class="f" d="M1463.4,588.094c1.7-1.89,9.638-10.835,11.213-11.15s5.408-1.008,6.263-1.89,4.47-12.232,3.039-14.3-6.954-1.478-8.627,2.035-1.589,5.355-4.351,7.782-14.792,12.263-15.913,13.257,1.1,5.821,2.859,6.658S1463.4,588.094,1463.4,588.094Z" transform="translate(-1444.674 -558.229)"/><path class="g" d="M1475.435,613.791c-4.055.85-10.793,1.57-13.017,2.289s-10.989,3.794-10.924,2.486,4.056-7.064,3.336-7.653-5.037-1.308-5.756-2.224-1.7-3.074-2.682-2.813-12.357,10.857-11.578,14.914c1.836,9.563,28.72,16.532,29.334,20.7s-2.085,44.164-.613,45.636,17.052,7.115,24.9,7.606,21.624-2.245,22.376-4.312-3.831-41.8-3.3-41.8.682,12.509,6.662,15.743c3.948,2.135,9.378-.064,10.418-1.243s-3.711-17.808-5.861-23.416-4.205-17.2-9.066-21.309-11.72-3.413-14.082-4.379-10.286-.274-12.284-.482A72.673,72.673,0,0,0,1475.435,613.791Z" transform="translate(-1434.776 -581.202)"/><path class="c" d="M1607.831,698.265s-6.992,2.113-7.537,2.84-1.515,3.636,0,4.849,3.177,2.119,4.974.72,3.436-3.282,4.475-3.519,4.146.209,5.45-.3,3.779-10.4,2.781-11S1607.831,698.265,1607.831,698.265Z" transform="translate(-1516.519 -623.863)"/><path class="h" d="M1507.951,588.164c-2.257-.468-6.612-4.728-7.012-9.057-.389-4.218-3.49-16.07,7.305-20.516,10.129-4.171,20.554.12,22.052,5.264,1.4,4.8-10.491,5.02-14.851,8.148s-4.656,5.206-5.744,4.711S1507.951,588.164,1507.951,588.164Z" transform="translate(-1467.261 -556.911)"/><path class="i" d="M1514.923,600.23c-.144,1.932-.629,11.275.18,12.651.743,1.263,2.063,4.935,7.24,4.773s8.535-5.339,8.818-5.946-.324-8.09-.324-9.344-6.957-4.207-9.748-4.126S1515.058,598.413,1514.923,600.23Z" transform="translate(-1474.416 -577.42)"/><path class="f" d="M1511.427,587.337c.585-.017-.106,3.544.952,4.708s5.662,7.232,10.534,6.639c4.213-.513,3.609-4.143,4.216-7.132.551-2.714,2.3-2.947,2.918-10.033.238-2.743,1.534-7.035-.847-7.828s-11.319-2.909-13.541,0-2.433,9.891-3.6,8.992-3.6-5.289-5.025-2.909S1508.306,587.426,1511.427,587.337Z" transform="translate(-1470.444 -564.5)"/><path class="e" d="M1576.531,673.453l-14.178,17.926a1.408,1.408,0,0,0,1.129,2.282l26.207-.445a1.408,1.408,0,0,0,1.1-.564l13.394-17.9a1.279,1.279,0,0,0-1.034-2.045l-25.528.212A1.408,1.408,0,0,0,1576.531,673.453Z" transform="translate(-1497.939 -614.38)"/><path class="j" d="M1624.487,688.511c-1.38.139-3.383.915-3.383,1.636s1.608.919,2.052.987,1.026.206.86.428-.5,1.332-1.387,1.137a54.282,54.282,0,0,0-5.52-.25c-.748,0-1.636.527-1.691,1.082s-.222.666-.666.694-1.248.444-1.248,1.165,1.782,1.371,1.782,1.625,3.495,2.39,4.18,2.786,1.965,1.406,2.686,1.406a2.185,2.185,0,0,0,2.019-1.676c.09-.991,1.514-1.713,1.532-2.2s-.451-.847-.4-1.154,1.3-.739,1.3-1.514a8.794,8.794,0,0,0-.559-2.145c-.072-.325-.361-1.028-.072-1.118s1.3-1.028,1.117-1.893S1625.125,688.446,1624.487,688.511Z" transform="translate(-1523.478 -622.218)"/><path class="k" d="M1484.188,966.906c1.575.851,2.459,3.44,2.683,3.473s.64-.032.64-.288-.064-1.12.224-1.12.608,1.408.672,3.455.792,6.93,0,7.551c-.5.389-5.055,2.784-5.183,3.1s.1,2.559-.288,2.911-1.28,1.215-1.984,1.248-4.767.448-6.687,0-4.351-1.376-4.415-1.632.48-5.7,1.088-6.367,4.991-6.687,5.343-7.231a6.206,6.206,0,0,0,.608-2.623,3.381,3.381,0,0,1,1.988-2.847A9.039,9.039,0,0,1,1484.188,966.906Z" transform="translate(-1452.18 -760.089)"/></g></g></svg>