<svg xmlns="http://www.w3.org/2000/svg" width="18" height="14.401" viewBox="0 0 18 14.401"><defs><style>.a{fill:#f27016;}</style></defs><path class="a" d="M6.3,7.2A3.6,3.6,0,1,0,2.7,3.6,3.6,3.6,0,0,0,6.3,7.2Zm2.52.9h-.47a4.9,4.9,0,0,1-4.1,0H3.78A3.781,3.781,0,0,0,0,11.88v1.17A1.35,1.35,0,0,0,1.35,14.4H9.082a1.351,1.351,0,0,1-.073-.6L9.2,12.089l.034-.312.222-.222L11.63,9.38A3.742,3.742,0,0,0,8.82,8.1Zm1.274,4.087L9.9,13.9a.448.448,0,0,0,.5.5l1.713-.191,3.879-3.879L13.973,8.311ZM17.8,7.563,16.738,6.5a.674.674,0,0,0-.951,0L14.724,7.56l-.115.115,2.019,2.017L17.8,8.517a.677.677,0,0,0,0-.953Z"/></svg>