<svg xmlns="http://www.w3.org/2000/svg" width="21" height="9.602" viewBox="0 0 21 9.602"><defs><style>.a{fill:#a6a6a6;}</style></defs><path class="a" d="M19.428,11.25a4.792,4.792,0,0,0-4.811,4.8,4.663,4.663,0,0,0,1.1,3.056H11.771a4.663,4.663,0,0,0,1.1-3.056,4.816,4.816,0,1,0-4.821,4.8H19.423a4.8,4.8,0,1,0,.005-9.6ZM8.046,19.107a3.056,3.056,0,1,1,3.061-3.056A3.041,3.041,0,0,1,8.046,19.107Zm11.383,0a3.056,3.056,0,1,1,3.061-3.056A3.041,3.041,0,0,1,19.428,19.107Z" transform="translate(-3.234 -11.25)"/></svg>