<svg xmlns="http://www.w3.org/2000/svg" width="16" height="16.001" viewBox="0 0 16 16.001"><defs><style>.a{fill:#f27016;}</style></defs><path class="a" d="M15.657,12.365,12,8.706a2.32,2.32,0,0,0-2.669-.434L6,4.94V3L2,0,0,2,3,6H4.938L8.269,9.331A2.325,2.325,0,0,0,8.7,12l3.659,3.659a1.162,1.162,0,0,0,1.647,0l1.647-1.647a1.167,1.167,0,0,0,0-1.647ZM10.363,7.031A3.288,3.288,0,0,1,12.7,8l.606.606a4.423,4.423,0,0,0,1.369-.922,4.494,4.494,0,0,0,1.184-4.272.374.374,0,0,0-.628-.172L12.91,5.565l-2.122-.353L10.435,3.09,12.76.766a.377.377,0,0,0-.178-.631A4.5,4.5,0,0,0,8.313,1.319,4.428,4.428,0,0,0,7.026,4.556L9.591,7.121a3.4,3.4,0,0,1,.772-.091ZM7.116,9.593,5.345,7.821.582,12.587A2,2,0,1,0,3.41,15.415l3.862-3.862a3.356,3.356,0,0,1-.156-1.959ZM2,14.749a.75.75,0,1,1,.75-.75A.752.752,0,0,1,2,14.749Z" transform="translate(0.004)"/></svg>